<svg width="32" height="32" viewBox="0 0 32 32" fill="none" xmlns="http://www.w3.org/2000/svg">
<circle cx="16" cy="16" r="16" fill="#0033AD"/>
<path d="M15.7477 6.53244C16.196 6.29865 16.7433 6.84102 16.5051 7.28896C16.3667 7.65411 15.8422 7.7512 15.5742 7.47287C15.2903 7.20575 15.3829 6.67778 15.7477 6.53244ZM10.9252 7.05229C11.1975 6.94017 11.5423 7.1897 11.5146 7.48655C11.5435 7.8088 11.1494 8.04599 10.8718 7.89284C10.504 7.75038 10.546 7.15329 10.9252 7.05229ZM20.8022 7.90189C20.3765 7.85046 20.3092 7.18127 20.719 7.04653C21.0368 6.89152 21.3284 7.1822 21.3749 7.48346C21.3082 7.74071 21.0928 7.97626 20.8022 7.90189ZM12.0225 9.10481C12.4778 8.81681 13.1276 9.24572 13.0575 9.77462C13.0339 10.3087 12.3246 10.618 11.9243 10.257C11.5374 9.97344 11.596 9.32287 12.0225 9.10481ZM18.9737 9.4104C19.1768 8.88685 20 8.87101 20.2312 9.38067C20.4598 9.77729 20.1786 10.2684 19.7714 10.4033C19.232 10.504 18.7197 9.92088 18.9737 9.4104ZM15.1669 10.3736C15.1625 9.92355 15.5724 9.58824 16.0001 9.55759C16.2837 9.61447 16.5929 9.73532 16.7146 10.0216C16.9414 10.4164 16.74 10.9602 16.3302 11.1414C16.1428 11.2464 15.9213 11.207 15.7172 11.1948C15.4052 11.0416 15.1425 10.7413 15.1669 10.3736ZM7.99518 11.0293C8.41113 10.7736 8.97232 11.2402 8.81485 11.6921C8.72814 12.0829 8.20275 12.242 7.9024 11.9924C7.58179 11.7586 7.63261 11.1965 7.99518 11.0293ZM23.3955 11.0284C23.7484 10.7544 24.3308 11.0688 24.2887 11.5143C24.3124 11.9206 23.8089 12.227 23.4586 12.0178C23.0727 11.8444 23.0334 11.2508 23.3955 11.0284ZM17.1837 11.8374C17.7661 11.6282 18.4578 11.8786 18.7898 12.3978C19.2276 13.0325 18.9947 13.9992 18.3152 14.3634C17.6111 14.7942 16.5831 14.429 16.323 13.6428C16.0278 12.9389 16.4579 12.0581 17.1837 11.8374ZM13.7668 11.9066C14.4123 11.602 15.2809 11.8576 15.5926 12.5178C15.9595 13.1605 15.6759 14.0553 15.0199 14.3872C14.3632 14.7601 13.4366 14.4774 13.1188 13.7874C12.7624 13.1202 13.0789 12.2139 13.7668 11.9066ZM10.3455 13.0763C10.3945 12.6605 10.7868 12.3899 11.1826 12.3619C11.6091 12.4133 11.9497 12.7445 11.9961 13.1761C11.9682 13.6034 11.638 14.021 11.1852 14.0184C10.6871 14.0613 10.2503 13.5657 10.3455 13.0763ZM20.451 12.4523C20.9624 12.1546 21.6725 12.588 21.6498 13.1755C21.6849 13.798 20.899 14.2367 20.3897 13.8715C19.8607 13.5675 19.902 12.7112 20.451 12.4523ZM12.3763 14.6463C12.9744 14.4817 13.6583 14.7636 13.9517 15.3134C14.273 15.8668 14.1416 16.6355 13.6426 17.0414C13.0025 17.6367 11.822 17.3977 11.4813 16.5852C11.0899 15.8404 11.5654 14.8423 12.3763 14.6463ZM18.8572 14.6432C19.4387 14.4768 20.1218 14.701 20.4344 15.2307C20.8476 15.8365 20.6504 16.7401 20.0351 17.1307C19.3906 17.5842 18.3922 17.3461 18.0376 16.637C17.6076 15.9035 18.0402 14.8669 18.8572 14.6432ZM8.52932 15.3344C9.04597 15.1389 9.61868 15.7091 9.40937 16.2213C9.28151 16.688 8.62384 16.8605 8.28411 16.5164C7.88656 16.1933 8.03375 15.4745 8.52932 15.3344ZM22.5334 16.0777C22.5184 15.6496 22.8316 15.2705 23.2706 15.2468C23.6245 15.3029 23.9685 15.5883 23.9406 15.9735C23.973 16.4823 23.3599 16.8281 22.9265 16.589C22.7233 16.4858 22.6191 16.2774 22.5334 16.0777ZM5.98894 15.5857C6.29978 15.45 6.68426 15.7194 6.61329 16.0646C6.59663 16.4554 6.0196 16.6057 5.80761 16.2791C5.6203 16.0523 5.73242 15.7026 5.98894 15.5857ZM25.5877 15.5778C25.8066 15.422 26.1578 15.534 26.2445 15.7897C26.3915 16.069 26.1219 16.4516 25.8075 16.4044C25.3663 16.4446 25.2235 15.7721 25.5877 15.5778ZM14.0646 17.4541C14.8825 17.2413 15.7617 17.9234 15.7669 18.7656C15.8203 19.6166 14.9543 20.3713 14.1171 20.1747C13.4699 20.0705 12.9621 19.4471 12.983 18.7932C12.9813 18.1677 13.4533 17.5863 14.0646 17.4541ZM17.3038 17.4523C18.1339 17.2203 19.0394 17.9145 19.0262 18.7762C19.07 19.6115 18.2311 20.3408 17.4114 20.175C16.6399 20.0753 16.0707 19.2277 16.2861 18.4791C16.3948 17.9803 16.8116 17.5746 17.3038 17.4523ZM11.0584 17.9707C11.6328 17.8727 12.1714 18.5136 11.9384 19.059C11.7685 19.6403 10.9226 19.798 10.5486 19.3232C10.1099 18.8672 10.4374 18.0337 11.0584 17.9707ZM20.5578 17.9963C21.07 17.7818 21.6988 18.2249 21.6594 18.7808C21.68 19.3928 20.9037 19.8148 20.4028 19.4576C19.8354 19.1369 19.9387 18.1931 20.5578 17.9963ZM23.2129 20.6595C23.0124 20.2856 23.3767 19.7901 23.7918 19.8593C23.9985 19.8558 24.143 20.0186 24.2753 20.1552C24.3024 20.3768 24.348 20.6411 24.1641 20.8118C23.9143 21.1279 23.3486 21.0377 23.2129 20.6595ZM7.99343 19.9634C8.38141 19.7051 8.93972 20.0903 8.8525 20.5439C8.80611 20.945 8.30077 21.1743 7.96792 20.9467C7.6107 20.74 7.62386 20.1517 7.99343 19.9634ZM15.6584 20.8031C16.1663 20.579 16.8134 21.0212 16.7652 21.5806C16.8029 22.1988 16.0025 22.6269 15.5059 22.2556C14.9543 21.9369 15.0463 20.9991 15.6584 20.8031ZM12.1082 21.6313C12.5409 21.4037 13.1214 21.7968 13.082 22.281C13.0952 22.6785 12.7072 23.0173 12.3149 22.9586C11.99 22.9516 11.7781 22.6603 11.6739 22.3833C11.6792 22.0814 11.8035 21.7452 12.1082 21.6313ZM19.2994 21.6383C19.7443 21.3634 20.3765 21.7582 20.3345 22.276C20.3459 22.8171 19.6313 23.1638 19.2171 22.8083C18.8161 22.5297 18.8651 21.8599 19.2994 21.6383ZM20.55 24.7299C20.3521 24.4305 20.585 24.0697 20.9064 24.0014C21.1647 24.054 21.4379 24.2483 21.3836 24.5478C21.346 24.9532 20.7531 25.0775 20.55 24.7299ZM10.6231 24.4699C10.7019 24.2326 10.8928 23.9967 11.1721 24.0584C11.5794 24.0873 11.7002 24.7011 11.3438 24.8902C11.0233 25.1063 10.6515 24.8104 10.6231 24.4699ZM15.4122 24.7421C15.4902 24.3911 15.9446 24.2203 16.2441 24.4068C16.442 24.4918 16.4998 24.7132 16.5507 24.9015C16.5235 24.9995 16.4992 25.0976 16.4754 25.1956C16.3528 25.341 16.1952 25.4863 15.9911 25.4811C15.6119 25.5255 15.2698 25.0968 15.4122 24.7421Z" fill="white"/>
</svg>
