<svg width="32" height="32" viewBox="0 0 32 32" fill="none" xmlns="http://www.w3.org/2000/svg">
<path fill-rule="evenodd" clip-rule="evenodd" d="M0 0H32V32H0V0Z" fill="white"/>
<path fill-rule="evenodd" clip-rule="evenodd" d="M16.0029 2.80975L2.91281 11.5835L8.36119 15.1214L14.8709 10.7344L12.2887 9.03823L15.8256 6.66856L23.5006 11.7617L10.9093 20.2147L13.6328 22.0185L29.3009 11.5849L29.2655 11.5495L16.0029 2.80975ZM29.0567 2.81341L23.6101 6.42103L26.3334 8.26013L29.0567 6.42103V2.81341ZM2.823 29.1904L8.26972 25.5829L5.54644 23.7437L2.823 25.5829V29.1904Z" fill="#33348E"/>
<path fill-rule="evenodd" clip-rule="evenodd" d="M15.9971 29.1829L29.0871 20.409L23.6389 16.8711L17.1293 21.2581L19.7112 22.9543L16.1744 25.3241L8.49947 20.2308L21.0906 11.778L18.3673 9.97406L2.69897 20.4076L2.73434 20.4433L15.9971 29.1829Z" fill="#33348E"/>
</svg>
