<svg width="29" height="7" viewBox="0 0 29 7" fill="none" xmlns="http://www.w3.org/2000/svg">
<path d="M8.33635 3.77501C8.40272 3.8055 8.46222 3.84911 8.51127 3.90323C8.56032 3.95735 8.59789 4.02085 8.62172 4.08989C8.64555 4.15893 8.65515 4.23208 8.64993 4.30493C8.64471 4.37778 8.62478 4.44882 8.59134 4.51376C8.44009 5.00563 8.31509 5.50563 8.17884 6.00188C8.16835 6.12748 8.13177 6.2495 8.07145 6.36016C8.01113 6.47082 7.92839 6.56768 7.82852 6.64456C7.72865 6.72143 7.61384 6.77663 7.49143 6.80663C7.36901 6.83662 7.24169 6.84075 7.1176 6.81876C5.02884 6.81918 2.93989 6.82084 0.850719 6.82376C0.685094 6.82376 0.625719 6.80876 0.678219 6.62376C1.2153 4.71709 1.74739 2.80938 2.27447 0.900633C2.27776 0.870579 2.28708 0.841497 2.30186 0.815124C2.31664 0.788751 2.33659 0.765627 2.36051 0.747134C2.38442 0.728642 2.41182 0.715159 2.44107 0.707491C2.47031 0.699824 2.5008 0.698129 2.53072 0.702508C4.68259 0.708133 6.83384 0.706258 8.98509 0.709383C9.06305 0.692862 9.14406 0.69817 9.2192 0.724723C9.29434 0.751276 9.3607 0.798044 9.41097 0.85988C9.46124 0.921717 9.49347 0.996224 9.50413 1.0752C9.51478 1.15418 9.50344 1.23456 9.47135 1.30751C9.30779 1.9441 9.13297 2.57774 8.94697 3.20813C8.89759 3.34437 8.81644 3.46686 8.71024 3.56545C8.60404 3.66404 8.47587 3.73588 8.33635 3.77501ZM5.45259 1.90626C4.78572 1.90626 4.11884 1.91126 3.45197 1.90313C3.41555 1.89595 3.37801 1.89678 3.34195 1.90557C3.30588 1.91436 3.27217 1.9309 3.24314 1.95403C3.21412 1.97717 3.19048 2.00635 3.17387 2.03955C3.15726 2.07274 3.14808 2.10916 3.14697 2.14626C3.08938 2.40649 3.01675 2.66317 2.92947 2.91501C2.87384 3.08688 2.88259 3.17563 3.10447 3.17501C4.44697 3.16751 5.78947 3.17376 7.13197 3.16876C7.32071 3.17115 7.50419 3.10651 7.64975 2.98635C7.79532 2.86619 7.89355 2.69829 7.92697 2.51251C7.95974 2.44028 7.97207 2.36045 7.96263 2.28169C7.9532 2.20294 7.92235 2.12828 7.87344 2.06584C7.82453 2.0034 7.75943 1.95557 7.68523 1.92754C7.61103 1.89951 7.53057 1.89237 7.45259 1.90688C6.78634 1.90501 6.11947 1.90688 5.45259 1.90626ZM4.43884 5.63251H6.41009C6.55759 5.63908 6.70408 5.60531 6.83381 5.53483C6.96354 5.46435 7.07159 5.35983 7.14634 5.23251C7.41759 4.79251 7.23384 4.36501 6.76884 4.36313C5.42822 4.35751 4.08759 4.36313 2.74697 4.35813C2.71667 4.35315 2.68568 4.35421 2.65579 4.36127C2.6259 4.36833 2.59771 4.38124 2.57283 4.39925C2.54796 4.41727 2.52691 4.44003 2.51088 4.46623C2.49486 4.49242 2.48418 4.52154 2.47947 4.55188C2.40884 4.82688 2.34572 5.10501 2.25072 5.37188C2.16634 5.61063 2.26447 5.63751 2.46822 5.63438C3.12447 5.62626 3.78197 5.63188 4.43884 5.63251ZM25.952 4.00688C25.747 4.18813 25.542 4.36563 25.3426 4.54938C24.5776 5.25355 23.8145 5.95918 23.0532 6.66626C22.9263 6.78501 22.862 6.80438 22.762 6.63001C22.1995 5.64251 21.6251 4.66126 21.0538 3.67813C21.035 3.6525 21.0141 3.62846 20.9913 3.60626C20.9047 3.71603 20.8513 3.84834 20.8376 3.98751C20.598 4.84292 20.3645 5.6998 20.137 6.55813C20.1356 6.59727 20.1258 6.63566 20.1082 6.67063C20.0905 6.7056 20.0655 6.73633 20.0349 6.76069C20.0042 6.78506 19.9686 6.80247 19.9306 6.81174C19.8925 6.82101 19.8529 6.82191 19.8145 6.81438C19.5582 6.79501 19.2988 6.80813 19.0413 6.81126C18.9226 6.81313 18.857 6.79563 18.8982 6.64563C19.4345 4.71147 19.9682 2.77647 20.4995 0.840633C20.5119 0.819386 20.5272 0.800023 20.5451 0.783133C20.6491 0.87626 20.7327 0.989889 20.7907 1.11688C21.5136 2.31897 22.2347 3.5223 22.9538 4.72688C23.1157 4.99688 23.1113 4.99126 23.3538 4.78438C24.6576 3.67188 25.9628 2.56126 27.2695 1.45251L28.0788 0.762508C28.0996 0.891927 28.0772 1.02457 28.0151 1.14001C27.5201 2.95626 27.0163 4.77063 26.5238 6.58751C26.5218 6.62227 26.5123 6.65618 26.4962 6.68701C26.48 6.71784 26.4574 6.74488 26.43 6.76634C26.4026 6.78779 26.3709 6.80317 26.3371 6.81145C26.3033 6.81974 26.2681 6.82074 26.2338 6.81438C25.9853 6.80052 25.7362 6.8001 25.4876 6.81313C25.2745 6.82563 25.2576 6.74688 25.3095 6.56313C25.5357 5.76938 25.7488 4.97126 25.9663 4.17563C25.9817 4.14946 25.9885 4.11919 25.9859 4.08898C25.9834 4.05876 25.9715 4.03009 25.952 4.00688ZM13.417 3.16688C14.1195 3.16688 14.822 3.15376 15.5232 3.17376C15.5687 3.18013 15.615 3.17706 15.6592 3.16473C15.7034 3.1524 15.7446 3.13108 15.7802 3.1021C15.8158 3.07312 15.8451 3.03711 15.8661 2.99631C15.8872 2.95552 15.8996 2.91082 15.9026 2.86501C16.067 2.23876 16.2432 1.61501 16.3976 0.985633C16.3993 0.941947 16.4106 0.899168 16.4306 0.860327C16.4507 0.821486 16.4791 0.787533 16.5137 0.760874C16.5484 0.734216 16.5884 0.715505 16.6311 0.706067C16.6738 0.696628 16.7181 0.696693 16.7607 0.706257C16.9915 0.722411 17.2231 0.722621 17.4538 0.706883C17.6407 0.697508 17.6832 0.751883 17.6313 0.936883C17.3663 1.87751 17.1126 2.82126 16.8551 3.76376C16.6076 4.67126 16.3545 5.57751 16.1163 6.48751C16.1151 6.53986 16.1022 6.59126 16.0785 6.63795C16.0548 6.68463 16.0209 6.7254 15.9793 6.75724C15.9378 6.78909 15.8896 6.8112 15.8383 6.82196C15.7871 6.83271 15.7341 6.83183 15.6832 6.81938C15.4618 6.79925 15.2391 6.79842 15.0176 6.81688C14.8388 6.82501 14.8095 6.76626 14.8582 6.59813C15.0488 5.94188 15.2226 5.28001 15.412 4.62313C15.467 4.43063 15.442 4.35313 15.2151 4.35438C13.7838 4.36272 12.3526 4.36313 10.9213 4.35563C10.8808 4.34928 10.8394 4.3515 10.7998 4.36213C10.7601 4.37276 10.7232 4.39158 10.6913 4.41737C10.6593 4.44316 10.6332 4.47535 10.6145 4.51187C10.5958 4.54838 10.5849 4.58842 10.5826 4.62938C10.417 5.29188 10.2201 5.94813 10.0476 6.60876C10.0448 6.64145 10.0351 6.67319 10.0192 6.70188C10.0033 6.73057 9.9815 6.75557 9.95523 6.77522C9.92896 6.79488 9.89883 6.80876 9.86681 6.81594C9.83479 6.82312 9.80162 6.82344 9.76947 6.81688C9.52094 6.80222 9.27175 6.80222 9.02322 6.81688C8.76385 6.83563 8.80635 6.70063 8.85072 6.53938C9.13197 5.52022 9.41135 4.50084 9.68885 3.48126C9.92322 2.62501 10.1588 1.76876 10.3882 0.910633C10.3899 0.880111 10.398 0.850289 10.412 0.82309C10.426 0.795891 10.4455 0.77192 10.4693 0.752722C10.493 0.733524 10.5206 0.719525 10.5501 0.71163C10.5797 0.703735 10.6105 0.702118 10.6407 0.706883C10.9063 0.719383 11.1738 0.718133 11.4407 0.706883C11.6257 0.698758 11.6457 0.767508 11.6001 0.928758C11.4101 1.60376 11.2363 2.28313 11.0413 2.95688C10.9895 3.13626 11.0338 3.17126 11.2038 3.16938C11.9413 3.16376 12.6795 3.16751 13.417 3.16688ZM19.107 0.725633H19.3732C19.727 0.725633 19.7295 0.726258 19.6388 1.05313C19.1443 2.84855 18.6484 4.64355 18.1513 6.43813C18.0401 6.84001 18.0357 6.83876 17.6226 6.83938C17.4276 6.83938 17.232 6.83313 17.037 6.84126C16.8613 6.84876 16.8263 6.79063 16.8745 6.62001C17.3461 4.93667 17.8132 3.25209 18.2757 1.56626C18.3349 1.38997 18.3825 1.21 18.4182 1.02751C18.416 0.978534 18.4257 0.929754 18.4464 0.885316C18.4671 0.840878 18.4982 0.802097 18.5371 0.772272C18.576 0.742448 18.6216 0.722462 18.6698 0.714016C18.7181 0.705569 18.7677 0.708912 18.8145 0.723759C18.9118 0.730835 19.0095 0.73146 19.107 0.725633Z" fill="#707174"/>
</svg>
