<svg width="32" height="32" viewBox="0 0 32 32" fill="none" xmlns="http://www.w3.org/2000/svg">
<path d="M32 16.0006C32 24.8356 24.836 31.9987 15.9962 32C7.16275 32 -0.00127952 24.8356 6.861e-07 15.9994C-0.00255972 7.16317 7.16147 0 15.9987 0C24.836 0 32 7.16445 32 16.0006Z" fill="#EAB300"/>
<path d="M22.2948 12.0785C22.0887 9.93581 20.2388 9.21773 17.9011 9.01293V6.03949H16.0922V8.93357C15.6172 8.93357 15.1308 8.94253 14.6481 8.95277V6.03949H12.8392L12.8379 9.01037C12.4462 9.01805 12.0608 9.02573 11.6857 9.02573V9.01677L9.19061 9.01549V10.9483C9.19061 10.9483 10.5271 10.9227 10.5041 10.947C11.2377 10.947 11.4758 11.372 11.5449 11.7393V15.1262C11.5961 15.1262 11.6614 15.1288 11.7357 15.139H11.5449L11.5436 19.884C11.5116 20.1144 11.3759 20.4817 10.8638 20.483C10.8869 20.5035 9.54907 20.483 9.54907 20.483L9.18933 22.6436H11.5449C11.9827 22.6436 12.4142 22.6513 12.8366 22.6539L12.8379 25.6606H14.6456V22.6859C15.141 22.6961 15.6211 22.7 16.0909 22.7L16.0896 25.6606H17.8986V22.6603C20.9403 22.4862 23.0719 21.7195 23.3356 18.8625C23.5494 16.5624 22.4676 15.5345 20.7406 15.1198C21.7917 14.5873 22.4484 13.6465 22.2948 12.0785ZM19.7625 18.5067C19.7625 20.7531 15.9155 20.4984 14.6878 20.4984V16.5137C15.9155 16.5163 19.7625 16.1643 19.7625 18.5067ZM18.9202 12.8862C18.9202 14.9304 15.7094 14.691 14.6878 14.6923V11.0801C15.7107 11.0801 18.9214 10.755 18.9202 12.8862Z" fill="white"/>
<path d="M11.5474 15.0469H11.8162V15.2453H11.5474V15.0469Z" fill="white"/>
</svg>
