<svg width="32" height="32" viewBox="0 0 32 32" fill="none" xmlns="http://www.w3.org/2000/svg">
<path fill-rule="evenodd" clip-rule="evenodd" d="M0 0H32V32H0V0Z" fill="white"/>
<path fill-rule="evenodd" clip-rule="evenodd" d="M10.7021 14.9602L9.99523 16.7216H10.9732L10.7053 14.9528L10.7021 14.9602ZM6.95752 19.0033L9.85727 13.034H12.049L13.2718 19.0033H11.3469L11.2055 18.208H9.33815L8.9085 19.0033H6.95752ZM14.1827 19.0033L15.0228 13.034H16.9621L16.1223 19.0033H14.1827ZM27.0805 14.9528L26.3707 16.7216H27.3487L27.0805 14.9528ZM23.3329 19.0033L26.2326 13.034H28.4242L29.6468 19.0033H27.7221L27.5806 18.208H25.7133L25.2837 19.0033H23.3329ZM19.0458 16.2121H21.4755L23.1406 18.97H20.7104L19.0458 16.2121Z" fill="#0D6FAB"/>
<path fill-rule="evenodd" clip-rule="evenodd" d="M19.2982 15.7885H21.8098L23.9911 13.0427H21.4795L19.2982 15.7885ZM16.7866 18.9868H19.2982L21.4795 16.207H18.9679L16.7866 18.9868Z" fill="#DB8135"/>
<path fill-rule="evenodd" clip-rule="evenodd" d="M17.6925 13.0091H20.0367L21.6427 15.7885H19.2985L17.6925 13.0091ZM7.01533 13.2478L6.82873 15.0034C6.11388 14.0175 4.4574 14.6978 4.32725 15.9261C4.1619 17.4853 5.75629 17.849 6.62404 16.9308L6.43694 18.6906C6.17796 18.8181 5.92479 18.9165 5.67494 18.9834C5.43189 19.0492 5.18177 19.0853 4.93004 19.091C4.61926 19.0975 4.33787 19.0648 4.08404 18.9934C3.83662 18.9262 3.60389 18.8135 3.39774 18.661C3.00595 18.3746 2.72273 18.0106 2.54809 17.5673C2.37377 17.1227 2.31617 16.6212 2.37576 16.0606C2.42358 15.6102 2.5373 15.1993 2.71808 14.8268C2.89738 14.4542 3.14573 14.1161 3.46199 13.8093C3.76098 13.5166 4.08653 13.296 4.43897 13.1459C4.78976 12.9973 5.17292 12.918 5.58695 12.9093C5.83106 12.9035 6.0749 12.9291 6.31243 12.9857C6.549 13.0423 6.78241 13.1306 7.01533 13.2478Z" fill="#0D6FAB"/>
</svg>
