<svg width="32" height="32" viewBox="0 0 32 32" fill="none" xmlns="http://www.w3.org/2000/svg">
<circle cx="16" cy="16" r="16" fill="#C2A633"/>
<path fill-rule="evenodd" clip-rule="evenodd" d="M10.7091 24.3699H16.2329H16.2331C16.2331 24.3699 24 25.0313 24 16.1348C24 7.58322 16.9073 7.61355 15.5365 7.61941C15.5044 7.61955 15.4755 7.61967 15.4498 7.61967H10.7089V15.0812H8.7619V16.9088H10.7091V24.3699ZM13.8204 10.7158H15.9997C16.8148 10.7158 20.9157 11.0491 20.9223 16.1951C20.9288 21.2798 16.7941 21.2745 16.129 21.2737C16.121 21.2736 16.1135 21.2736 16.1065 21.2736H13.8204V16.9087H17.2491V15.081H13.8204V10.7158Z" fill="white"/>
</svg>
