<svg width="32" height="33" viewBox="0 0 32 33" fill="none" xmlns="http://www.w3.org/2000/svg">
<rect width="32" height="32.8205" rx="16" fill="white"/>
<g clip-path="url(#clip0_35_6852)">
<path d="M16.0004 27.7088C18.1758 27.7088 19.9392 26.6646 19.9392 25.3765C19.9392 24.0884 18.1758 23.0441 16.0004 23.0441C13.825 23.0441 12.0615 24.0884 12.0615 25.3765C12.0615 26.6646 13.825 27.7088 16.0004 27.7088Z" fill="#E6007A"/>
<path d="M25.4581 22.1493C26.5458 20.2313 26.5393 18.1543 25.4437 17.5103C24.348 16.8662 22.5781 17.899 21.4904 19.817C20.4027 21.735 20.4092 23.812 21.5048 24.456C22.6005 25.1001 24.3704 24.0673 25.4581 22.1493Z" fill="#E6007A"/>
<path d="M16.0003 10.1348C18.1757 10.1348 19.9392 9.09057 19.9392 7.80245C19.9392 6.51432 18.1757 5.47009 16.0003 5.47009C13.825 5.47009 12.0615 6.51432 12.0615 7.80245C12.0615 9.09057 13.825 10.1348 16.0003 10.1348Z" fill="#E6007A"/>
<path d="M10.5113 13.3635C11.599 11.4454 11.5919 9.36809 10.4955 8.72359C9.39913 8.07909 7.62856 9.11149 6.54086 11.0295C5.45316 12.9476 5.46022 15.0249 6.55663 15.6694C7.65304 16.3139 9.4236 15.2815 10.5113 13.3635Z" fill="#E6007A"/>
<path d="M10.496 24.4556C11.5924 23.8111 11.5995 21.7337 10.5118 19.8157C9.42411 17.8977 7.65356 16.8653 6.55716 17.5098C5.46077 18.1543 5.45371 20.2316 6.5414 22.1496C7.62909 24.0677 9.39964 25.1001 10.496 24.4556Z" fill="#E6007A"/>
<path d="M25.4447 15.6697C26.5404 15.0256 26.5468 12.9486 25.4591 11.0306C24.3714 9.11262 22.6015 8.07988 21.5058 8.72393C20.4101 9.36799 20.4037 11.445 21.4914 13.363C22.5791 15.281 24.349 16.3137 25.4447 15.6697Z" fill="#E6007A"/>
</g>
<defs>
<clipPath id="clip0_35_6852">
<rect width="22.8571" height="22.2512" fill="white" transform="translate(4.57141 5.47009)"/>
</clipPath>
</defs>
</svg>
