<svg width="32" height="32" viewBox="0 0 32 32" fill="none" xmlns="http://www.w3.org/2000/svg">
<g clip-path="url(#clip0_35_5481)">
<path d="M14.556 15.328V19.2H13.3267V9.63601H16.5853C16.9744 9.62753 17.3613 9.69634 17.7236 9.83847C18.086 9.9806 18.4165 10.1932 18.696 10.464C19.268 10.9787 19.5893 11.7147 19.5773 12.4827C19.5857 12.8647 19.5113 13.244 19.3592 13.5946C19.207 13.9451 18.9808 14.2586 18.696 14.5133C18.1253 15.0573 17.4213 15.3293 16.5853 15.328H14.556ZM14.556 10.8133V14.1533H16.616C17.0733 14.1667 17.5133 13.988 17.832 13.6587C18.4773 13.032 18.4933 11.9987 17.864 11.3533L17.832 11.3213C17.6768 11.1555 17.4881 11.0244 17.2785 10.9368C17.0689 10.8492 16.8431 10.8072 16.616 10.8133H14.556ZM22.4093 12.4427C23.3187 12.4427 24.0347 12.6853 24.56 13.1707C25.0853 13.656 25.348 14.3227 25.348 15.1667V19.2013H24.1733V18.292H24.12C23.6107 19.04 22.9333 19.4147 22.0893 19.4147C21.368 19.4147 20.7653 19.2013 20.28 18.7733C20.0473 18.577 19.8612 18.3313 19.7353 18.0541C19.6094 17.7769 19.5467 17.4751 19.552 17.1707C19.552 16.4933 19.808 15.9547 20.32 15.5547C20.832 15.1547 21.5147 14.9533 22.3707 14.9533C23.1 14.9533 23.7013 15.0867 24.1733 15.3533V15.072C24.1748 14.8645 24.13 14.6593 24.0421 14.4713C23.9542 14.2833 23.8255 14.1173 23.6653 13.9853C23.3403 13.6919 22.9165 13.5319 22.4787 13.5373C21.7933 13.5373 21.2493 13.8267 20.8493 14.4053L19.768 13.724C20.3613 12.8693 21.2427 12.4427 22.4093 12.4427ZM20.8187 17.1973C20.8181 17.3536 20.8546 17.5077 20.9253 17.6471C20.996 17.7864 21.0989 17.9069 21.2253 17.9987C21.4973 18.212 21.8347 18.3267 22.18 18.3187C22.6987 18.3174 23.1958 18.1108 23.5627 17.744C23.9693 17.36 24.1733 16.912 24.1733 16.3947C23.7893 16.0893 23.256 15.936 22.5707 15.936C22.072 15.936 21.6547 16.056 21.3213 16.2973C20.9867 16.544 20.8187 16.8413 20.8187 17.1973ZM32.0947 12.656L27.992 22.0867H26.724L28.2467 18.7867L25.5467 12.656H26.8827L28.8333 17.3573H28.86L30.7573 12.656H32.0947Z" fill="#5F6368"/>
<path d="M10.772 15.6C10.772 15.2253 10.7413 14.852 10.6773 14.4827H5.49463V16.5987H8.46263C8.40205 16.9366 8.27357 17.2588 8.08497 17.5457C7.89636 17.8327 7.65154 18.0784 7.3653 18.268V19.6427H9.1373C10.1746 18.688 10.772 17.2733 10.772 15.6Z" fill="#4285F4"/>
<path d="M5.49478 20.9707C6.97745 20.9707 8.22678 20.484 9.13745 19.644L7.36545 18.2693C6.87212 18.604 6.23745 18.7947 5.49478 18.7947C4.06145 18.7947 2.84545 17.828 2.40945 16.5267H0.585449V17.9427C1.04258 18.8529 1.74378 19.6181 2.61072 20.1529C3.47766 20.6876 4.4762 20.9707 5.49478 20.9707Z" fill="#34A853"/>
<path d="M2.41056 16.5267C2.17991 15.8443 2.17991 15.105 2.41056 14.4227V13.008H0.585225C0.200566 13.7738 0.000244141 14.619 0.000244141 15.476C0.000244141 16.333 0.200566 17.1782 0.585225 17.944L2.41056 16.5267Z" fill="#FBBC04"/>
<path d="M5.49478 12.156C6.27834 12.1435 7.03543 12.4394 7.60278 12.98L9.17212 11.412C8.1769 10.4783 6.85937 9.96519 5.49478 9.97999C4.4762 9.97994 3.47766 10.2631 2.61072 10.7978C1.74378 11.3325 1.04258 12.0977 0.585449 13.008L2.41078 14.424C2.84545 13.1213 4.06145 12.156 5.49478 12.156Z" fill="#EA4335"/>
</g>
<defs>
<clipPath id="clip0_35_5481">
<rect width="32" height="32" fill="white"/>
</clipPath>
</defs>
</svg>
