<svg width="28" height="28" viewBox="0 0 28 28" fill="none" xmlns="http://www.w3.org/2000/svg">
<g clip-path="url(#clip0_35_5492)">
<path fill-rule="evenodd" clip-rule="evenodd" d="M0 0H28V28H0V0Z" fill="white"/>
<path fill-rule="evenodd" clip-rule="evenodd" d="M5.90826 1.23532L22.13 1.24491C24.6763 1.24491 26.7745 3.34292 26.7647 5.8988V22.1204C26.7647 24.6764 24.6667 26.7649 22.111 26.7649L5.87965 26.7553C3.32377 26.746 1.23535 24.6576 1.23535 22.1015L1.25438 5.87962C1.25438 3.32389 3.34295 1.22574 5.90826 1.23532Z" fill="#33348E"/>
<path fill-rule="evenodd" clip-rule="evenodd" d="M23.1695 12.8795H21.3194L20.5565 14.329H21.8534L23.1695 12.8795ZM24.3997 15.2352H22.5973V19.126C22.5973 20.3182 21.796 20.6614 21.2051 20.6614C20.6422 20.6614 20.0222 20.4515 20.032 19.4119V15.235H18.2295L18.22 19.6694C18.22 21.3858 19.2025 22.1487 20.5566 22.1487C21.5005 22.1583 22.2351 21.7481 22.6451 21.0235H22.6641V21.9677H24.3998V15.2352H24.3997ZM16.8179 17.0182C16.8179 15.3495 15.0634 15.0539 14.0906 15.0539C12.6887 15.0539 11.2295 15.3495 11.0102 17.4093H12.7554C12.8126 17.0184 12.9747 16.4747 13.8711 16.4747C14.3384 16.4747 15.0634 16.513 15.0634 17.2569C15.0634 17.6382 14.7104 17.7528 14.4243 17.7909L12.8032 18.0293C11.6492 18.1915 10.791 18.8684 10.791 20.1847C10.791 21.5768 11.8591 22.149 12.8794 22.149C14.1192 22.149 14.7009 21.5864 15.1015 21.1765C15.1395 21.5485 15.1682 21.6438 15.2732 21.968L16.8276 21.9584C16.8276 21.2146 16.818 20.671 16.818 20.6615L16.8179 17.0182ZM9.13154 12.8795H7.32914V15.2254H6.39452V16.4939H7.31955V20.585C7.31955 21.4526 7.59613 22.0441 9.16015 22.0441H9.39867C9.68469 22.0441 9.97071 22.0248 10.2474 22.0155V20.6707C10.1234 20.6803 9.99003 20.6993 9.87542 20.6993C9.14113 20.6993 9.12195 20.5466 9.12195 20.146L9.13154 16.4937H10.2569V15.2253H9.13154V12.8795ZM5.56494 12.8699H3.61945L3.60986 21.9583H5.55535L5.56494 12.8699Z" fill="#FFF22D"/>
<path fill-rule="evenodd" clip-rule="evenodd" d="M15.0634 19.555V18.6873C14.8821 18.8303 14.5767 18.9446 13.833 19.0496C13.1559 19.1639 12.6028 19.3356 12.6028 20.0701C12.6028 20.6803 13.0987 20.8806 13.442 20.8806C14.2432 20.8808 15.0634 20.3753 15.0634 19.555Z" fill="#33348E"/>
</g>
<defs>
<clipPath id="clip0_35_5492">
<rect width="28" height="28" rx="8" fill="white"/>
</clipPath>
</defs>
</svg>
