<svg width="32" height="10" viewBox="0 0 32 10" fill="none" xmlns="http://www.w3.org/2000/svg">
<path d="M24.6126 2.22499C24.7376 2.12499 24.8001 2.07499 24.8626 2.02499C25.7313 1.28749 26.8438 1.36874 27.5876 2.24374C27.6626 2.33124 27.7001 2.33749 27.7751 2.26249C27.8251 2.20624 27.8813 2.16249 27.9313 2.10624C28.5126 1.53749 29.2813 1.36874 30.0001 1.68749C30.7563 2.02499 31.1626 2.61874 31.1688 3.44999C31.1813 5.24374 31.1751 7.03124 31.1751 8.82499C31.1751 9.46249 30.7813 9.86249 30.1501 9.86249C29.9001 9.86249 29.6501 9.84374 29.4001 9.86874C29.1438 9.89374 29.0688 9.81249 29.0688 9.54374C29.0813 7.79374 29.0751 6.04374 29.0751 4.29374C29.0751 4.21874 29.0751 4.14999 29.0751 4.07499C29.0688 3.66874 28.9063 3.49999 28.5188 3.48124C28.1688 3.46249 27.9251 3.67499 27.8876 4.03124C27.8813 4.11249 27.8876 4.19999 27.8876 4.28124C27.8876 5.79374 27.8876 7.29999 27.8876 8.81249C27.8876 9.47499 27.5063 9.86249 26.8438 9.85624C26.5063 9.84999 26.0501 10.0062 25.8563 9.78749C25.6876 9.59999 25.8001 9.15624 25.8001 8.82499C25.8001 7.27499 25.8001 5.71874 25.8001 4.16874C25.8001 3.61874 25.4438 3.33749 24.9813 3.52499C24.6938 3.64374 24.6001 3.87499 24.6001 4.17499C24.6063 5.62499 24.6001 7.06874 24.6001 8.51874C24.6001 8.63124 24.6001 8.74999 24.6001 8.86249C24.5813 9.46874 24.1938 9.84999 23.5938 9.85624C23.3438 9.86249 23.0938 9.83749 22.8438 9.86249C22.5751 9.88749 22.4938 9.81249 22.5001 9.52499C22.5126 7.06874 22.5063 4.61249 22.5063 2.14999C22.5063 2.04374 22.5126 1.94374 22.5063 1.83749C22.4938 1.69999 22.5501 1.65624 22.6876 1.65624C23.2626 1.66249 23.8313 1.66249 24.4063 1.65624C24.5501 1.65624 24.6188 1.69374 24.6063 1.84999C24.5938 1.96249 24.6063 2.06249 24.6126 2.22499Z" fill="#02B9EF"/>
<path d="M11.3626 5.61249C11.3626 6.46874 11.3626 7.31874 11.3626 8.17499C11.3563 9.28749 10.7751 9.86249 9.66256 9.86874C9.17506 9.86874 8.68131 9.87499 8.19381 9.86874C7.20631 9.85624 6.48131 9.19999 6.43131 8.21249C6.39381 7.50624 6.38756 6.79374 6.42506 6.08749C6.47506 5.07499 7.25006 4.36249 8.27506 4.34999C8.54381 4.34374 8.81881 4.34999 9.08756 4.34999C9.35006 4.34374 9.45006 4.19374 9.44381 3.94374C9.44381 3.69374 9.33131 3.58124 9.08131 3.59374C8.80006 3.59999 8.51881 3.59999 8.23756 3.59374C7.55006 3.58124 7.16881 3.20624 7.17506 2.53124C7.17506 2.25624 7.05006 1.88749 7.23131 1.72499C7.38756 1.58749 7.74381 1.67499 8.01256 1.67499C8.71256 1.66874 9.40631 1.67499 10.1063 1.67499C10.8501 1.67499 11.3563 2.18124 11.3626 2.93124C11.3688 3.81874 11.3626 4.71874 11.3626 5.61249ZM9.45006 7.03124C9.45006 6.92499 9.45006 6.82499 9.45006 6.71874C9.45006 6.08124 9.45006 6.08124 8.81256 6.10624C8.49381 6.11874 8.31881 6.28124 8.31256 6.61249C8.30631 6.87499 8.30631 7.13124 8.31256 7.39374C8.31881 7.84374 8.51881 7.96249 9.16881 7.98124C9.65006 7.99374 9.40631 7.65624 9.45006 7.46874C9.47506 7.33124 9.44381 7.17499 9.45006 7.03124ZM16.9251 4.93124C16.9251 5.88749 16.9376 6.84999 16.9188 7.80624C16.9063 8.54374 16.7313 9.21249 16.0188 9.60624C15.7313 9.76249 15.4188 9.84999 15.0938 9.85624C14.3751 9.86874 13.6563 9.85624 12.9376 9.86874C12.7626 9.86874 12.7251 9.80624 12.7313 9.64999C12.7438 9.38749 12.7251 9.13124 12.7376 8.86874C12.7501 8.36874 13.1313 7.98749 13.6313 7.96874C13.9563 7.95624 14.2751 7.96249 14.6001 7.96874C14.8626 7.96874 15.0063 7.86249 15.0063 7.58124C15.0063 7.29374 14.8688 7.19374 14.6063 7.18749C14.1688 7.17499 13.7313 7.23749 13.3001 7.11249C12.5563 6.89374 12.0126 6.27499 11.9938 5.50624C11.9563 4.28749 11.9813 3.06874 11.9751 1.84999C11.9751 1.71249 12.0188 1.66874 12.1563 1.67499C12.6688 1.68124 13.1751 1.68749 13.6876 1.67499C13.9126 1.66874 13.8813 1.79374 13.8813 1.93124C13.8813 2.84999 13.8813 3.76249 13.8813 4.68124C13.8813 5.08124 14.0688 5.29374 14.4188 5.30624C14.8313 5.31874 15.0126 5.14999 15.0126 4.73124C15.0126 3.80624 15.0188 2.87499 15.0063 1.94999C15.0063 1.73124 15.0626 1.66874 15.2813 1.67499C15.7376 1.69374 16.2001 1.69999 16.6563 1.67499C16.9063 1.66249 16.9438 1.75624 16.9376 1.97499C16.9188 2.95624 16.9251 3.94374 16.9251 4.93124ZM1.00006 6.34999C1.00006 5.33124 1.00006 4.30624 1.00006 3.28749C1.00006 2.28749 1.61256 1.66249 2.61881 1.67499C3.27506 1.68124 3.93131 1.59999 4.58131 1.72499C5.41256 1.88749 5.93756 2.53124 5.94381 3.38749C5.95006 4.29374 5.94381 5.19999 5.94381 6.10624C5.94381 7.24374 5.27506 7.93749 4.13756 7.96874C3.79381 7.98124 3.45006 7.97499 3.10631 7.96874C2.95006 7.96249 2.88131 8.01249 2.88756 8.18124C2.90006 8.43124 2.89381 8.68124 2.88756 8.93124C2.87506 9.46874 2.49381 9.85624 1.96256 9.86249C1.65006 9.86874 1.25631 9.99374 1.05631 9.81249C0.86881 9.64374 1.00631 9.24374 1.00006 8.94374C0.99381 8.08124 1.00006 7.21249 1.00006 6.34999ZM2.88756 4.81874C2.88756 5.01874 2.88756 5.21249 2.88756 5.41249C2.88756 6.11874 2.88756 6.11874 3.59381 6.05624C3.90006 6.03124 4.04381 5.88124 4.05006 5.57499C4.05631 5.22499 4.03756 4.86874 4.05631 4.51874C4.09381 3.50624 3.90631 3.60624 3.08131 3.59999C2.93131 3.59999 2.88131 3.64374 2.88131 3.79374C2.89381 4.13124 2.88756 4.47499 2.88756 4.81874Z" fill="#06306F"/>
<path d="M18.6938 6.3625C18.6938 5.53125 18.6876 4.69375 18.7001 3.8625C18.7001 3.66875 18.6563 3.5875 18.4438 3.59375C18.1626 3.60625 17.7876 3.6875 17.6313 3.55C17.4376 3.36875 17.5876 2.98125 17.5626 2.68125C17.5626 2.6625 17.5626 2.6375 17.5626 2.61875C17.5626 2.325 17.4688 1.98125 17.5938 1.7625C17.7188 1.54375 18.1001 1.68125 18.3688 1.6125C18.9001 1.475 19.3001 1.16875 19.6251 0.743746C19.8501 0.456246 20.1313 0.249996 20.4938 0.181246C20.6876 0.143746 20.8063 0.168746 20.7938 0.418746C20.7751 0.768746 20.7938 1.125 20.7876 1.48125C20.7813 1.63125 20.8376 1.68125 20.9876 1.675C21.2376 1.66875 21.4876 1.68125 21.7376 1.66875C21.8876 1.6625 21.9376 1.71875 21.9313 1.86875C21.9251 2.38125 21.9251 2.8875 21.9313 3.4C21.9313 3.54375 21.8938 3.61875 21.7376 3.6C21.7063 3.59375 21.6751 3.6 21.6438 3.6C21.3688 3.625 20.9876 3.475 20.8438 3.6625C20.7063 3.8375 20.7938 4.2 20.7938 4.48125C20.7938 6.18125 20.7876 7.875 20.8001 9.575C20.8001 9.8125 20.7376 9.8875 20.5001 9.86875C20.2751 9.85 20.0438 9.86875 19.8126 9.8625C19.1376 9.8375 18.6938 9.38125 18.6938 8.70625C18.6938 7.925 18.6938 7.14375 18.6938 6.3625Z" fill="#02B9EF"/>
</svg>
