<svg width="36" height="10" viewBox="0 0 36 10" fill="none" xmlns="http://www.w3.org/2000/svg">
<path d="M5.17524 9.82065C5.03322 9.80674 4.89047 9.79722 4.74918 9.77856C3.82458 9.65594 3.00101 9.30015 2.29017 8.6951C1.54711 8.06969 1.017 7.22861 0.773336 6.28844C0.637678 5.78116 0.590866 5.25422 0.634976 4.73097C0.708182 3.81772 1.01309 2.98829 1.56836 2.25989C2.34581 1.23976 3.37399 0.616404 4.64303 0.427897C6.02809 0.221821 7.27846 0.571382 8.35862 1.45755C9.28944 2.21999 9.85093 3.2123 10.0215 4.40264C10.2228 5.80637 9.86192 7.06699 8.9461 8.15227C8.17487 9.06735 7.18036 9.59554 5.99845 9.7738C5.8502 9.79649 5.69976 9.80527 5.55042 9.82065H5.17524ZM4.30481 3.5615C3.92304 3.5615 3.54164 3.5615 3.15987 3.5615C3.05811 3.5615 3.02187 3.59225 3.01345 3.69254C3.00412 3.79004 3.00596 3.88828 3.01894 3.98536C3.02908 4.06717 3.06889 4.1424 3.13084 4.19679C3.19278 4.25117 3.27253 4.28092 3.35496 4.28039C3.44281 4.28222 3.53066 4.28039 3.6185 4.28039C3.72831 4.28039 3.72831 4.28039 3.72831 4.38836C3.72831 4.7971 3.72831 5.20584 3.72831 5.61457C3.72808 5.77771 3.74937 5.94017 3.79164 6.09774C3.90913 6.53697 4.16536 6.8514 4.61009 6.98244C4.98161 7.09225 5.35459 7.06552 5.72136 6.94583C5.80738 6.91765 5.80884 6.91765 5.80921 7.00879C5.80921 7.26208 5.80738 7.51538 5.80921 7.76867C5.80847 7.8229 5.81862 7.87673 5.83906 7.92696C5.85951 7.9772 5.88983 8.02282 5.92823 8.06112C5.96663 8.09942 6.01233 8.12962 6.06262 8.14993C6.11291 8.17024 6.16677 8.18025 6.22099 8.17936C6.34142 8.17936 6.46221 8.18156 6.58263 8.17936C6.60341 8.17981 6.62406 8.17605 6.64334 8.16829C6.66262 8.16054 6.68013 8.14895 6.6948 8.13424C6.70948 8.11953 6.72102 8.102 6.72873 8.0827C6.73644 8.0634 6.74016 8.04274 6.73966 8.02197C6.73966 7.99195 6.73966 7.96194 6.73966 7.93192C6.73966 6.75037 6.73966 5.56918 6.73966 4.38836C6.73966 4.25366 6.73966 4.25366 6.8707 4.25366C7.0237 4.25366 7.17707 4.25366 7.33007 4.25366C7.44354 4.25366 7.47648 4.21889 7.47648 4.10359C7.47648 4.02868 7.47648 3.9534 7.47648 3.87775C7.47392 3.67277 7.33629 3.53624 7.12948 3.53441C6.94866 3.53295 6.76797 3.53295 6.58739 3.53441C6.56366 3.53603 6.5399 3.53184 6.51815 3.52221C6.4964 3.51258 6.47732 3.4978 6.46257 3.47914C6.39486 3.39861 6.32458 3.31992 6.2554 3.24085C5.86155 2.78575 5.46685 2.33139 5.07129 1.87775C5.02491 1.81962 4.96581 1.77289 4.89855 1.74116C4.83129 1.70944 4.75765 1.69355 4.68329 1.69473C4.43915 1.69766 4.22246 1.80454 3.99735 1.88031C3.9289 1.90301 3.92158 1.99012 3.96953 2.04503C3.98642 2.06362 4.00426 2.08134 4.02297 2.0981C4.50906 2.55955 4.99527 3.02075 5.48161 3.4817C5.49918 3.49817 5.53139 3.51391 5.52334 3.53917C5.51309 3.57211 5.47612 3.55857 5.45013 3.55857C5.06836 3.55857 4.68695 3.55857 4.30518 3.55857M35.4018 6.62958C35.3513 6.7123 35.2788 6.74195 35.1804 6.74122C34.6807 6.73756 34.1811 6.74122 33.6815 6.73793C33.6083 6.73793 33.5753 6.75476 33.5782 6.83273C33.5808 6.88983 33.5658 6.9473 33.5651 7.00476C33.561 7.28112 33.7389 7.46633 34.0164 7.48646C34.2938 7.50659 34.5574 7.43009 34.8092 7.31296C34.9889 7.22987 35.0244 7.23976 35.1346 7.40813C35.2129 7.52746 35.281 7.64898 35.2268 7.80088C35.1975 7.89014 35.135 7.96471 35.0522 8.00916C34.6697 8.21157 34.2602 8.2705 33.8334 8.23317C33.6325 8.21844 33.4364 8.1646 33.2561 8.07468C32.8326 7.85506 32.6207 7.49781 32.6006 7.03331C32.5837 6.64532 32.5918 6.25586 32.5984 5.86714C32.609 5.20352 33.0603 4.71962 33.7331 4.64056C33.9723 4.6075 34.2155 4.61579 34.452 4.66508C34.9886 4.78771 35.3103 5.13836 35.3879 5.68339C35.3908 5.70279 35.3963 5.72219 35.4007 5.74159L35.4018 6.62958ZM34.0504 6.17497C34.191 6.17497 34.3315 6.17497 34.4721 6.17497C34.523 6.17497 34.5453 6.15667 34.5453 6.10469C34.5453 6.02453 34.5453 5.94437 34.5453 5.86421C34.5361 5.60798 34.3912 5.43705 34.1357 5.40447C33.8121 5.36311 33.5742 5.52965 33.5676 5.87263C33.5676 5.94583 33.5702 6.01904 33.5676 6.09225C33.5651 6.16545 33.5921 6.17863 33.6562 6.1768C33.7891 6.1735 33.9219 6.1768 34.0552 6.1768M13.1661 7.47438C13.1661 7.65008 13.1661 7.82541 13.1661 8.0011C13.1661 8.12079 13.1035 8.19071 12.9831 8.19364C12.7949 8.19803 12.6068 8.19803 12.4187 8.19364C12.3088 8.19107 12.2488 8.12995 12.2356 8.02233C12.232 7.99246 12.2304 7.96238 12.2309 7.93229C12.2309 6.59847 12.2309 5.26465 12.2309 3.93082C12.2309 3.89422 12.2342 3.86055 12.2375 3.82577C12.2408 3.77768 12.259 3.73183 12.2897 3.69462C12.3203 3.65741 12.3618 3.6307 12.4084 3.61823C12.8209 3.48097 13.2433 3.39861 13.6793 3.40996C14.0215 3.41984 14.3451 3.50147 14.6309 3.69839C14.9604 3.92424 15.1577 4.23866 15.2053 4.63031C15.2585 5.02092 15.2564 5.41708 15.199 5.80711C15.1497 6.09929 15.0065 6.36742 14.791 6.57082C14.5755 6.77421 14.2996 6.90176 14.005 6.93412C13.7433 6.96596 13.4838 6.9656 13.232 6.87372C13.176 6.85323 13.1672 6.87848 13.1672 6.9257C13.1672 7.10872 13.1672 7.29173 13.1672 7.47475M13.1961 5.1552C13.1961 5.41582 13.1983 5.67607 13.1961 5.93668C13.1933 5.96361 13.2 5.99067 13.2149 6.01324C13.2299 6.03581 13.2522 6.05248 13.2781 6.0604C13.4161 6.12299 13.5603 6.12446 13.7064 6.1164C14.0486 6.09774 14.292 5.847 14.292 5.5044C14.2902 5.25037 14.3114 4.99634 14.2646 4.74232C14.2279 4.53844 14.139 4.37885 13.9472 4.28954C13.721 4.18412 13.49 4.19766 13.2576 4.26794C13.2049 4.28405 13.1987 4.31919 13.1987 4.36604C13.1987 4.62885 13.1987 4.89203 13.1987 5.1552M29.2693 5.92241V3.92826C29.2693 3.71999 29.3162 3.65776 29.5127 3.59591C29.8985 3.47475 30.292 3.40008 30.6972 3.40923C31.0878 3.41801 31.452 3.51574 31.7624 3.76721C31.8967 3.87354 32.0087 4.00549 32.0917 4.15541C32.1747 4.30533 32.2271 4.47023 32.2459 4.64056C32.2966 5.01403 32.2966 5.39264 32.2459 5.76611C32.1547 6.37446 31.7463 6.7888 31.1368 6.91655C30.8563 6.98212 30.5632 6.96945 30.2894 6.87995C30.2228 6.85652 30.2075 6.87445 30.2078 6.94034C30.21 7.28405 30.2078 7.62775 30.2078 7.97109C30.2078 8.13251 30.146 8.1962 29.9882 8.19693C29.8304 8.19766 29.6668 8.19693 29.5061 8.19693C29.3454 8.19693 29.2737 8.12885 29.2719 7.9634V5.92241H29.2693ZM30.2364 5.15374C30.2364 5.41691 30.2382 5.68046 30.2364 5.94364C30.234 5.96812 30.24 5.99268 30.2532 6.01339C30.2665 6.0341 30.2863 6.04975 30.3096 6.05784C30.4468 6.12263 30.5911 6.12519 30.7375 6.11787C31.0848 6.1014 31.3275 5.8503 31.3308 5.50366C31.3308 5.33566 31.3308 5.16728 31.3308 4.99927C31.3269 4.86724 31.3051 4.73634 31.266 4.61018C31.2477 4.54322 31.215 4.48106 31.1702 4.42797C31.1255 4.37488 31.0697 4.33215 31.0069 4.30271C30.7839 4.18924 30.5526 4.19839 30.3176 4.25989C30.3049 4.26155 30.2927 4.26572 30.2816 4.27216C30.2705 4.2786 30.2608 4.28718 30.2531 4.2974C30.2454 4.30762 30.2397 4.31927 30.2366 4.33168C30.2334 4.3441 30.2327 4.35702 30.2345 4.3697C30.2382 4.63068 30.2345 4.89129 30.2345 5.15227M15.7184 5.78771C15.7184 5.06028 15.7184 4.33285 15.7184 3.60542C15.7184 3.44034 15.7785 3.37885 15.9457 3.37995C16.0662 3.37995 16.187 3.3697 16.3066 3.38983C16.3944 3.40267 16.4754 3.44436 16.5368 3.50831C16.5982 3.57227 16.6366 3.65486 16.646 3.74305C16.6705 3.98573 16.6511 4.22951 16.6558 4.47255C16.6558 4.53771 16.658 4.60286 16.6558 4.66801C16.6536 4.72328 16.6679 4.74671 16.729 4.72951C16.8941 4.68643 17.0631 4.66006 17.2334 4.65081C17.8744 4.60249 18.3879 4.97768 18.5255 5.60249C18.5584 5.74661 18.575 5.89393 18.5753 6.04173C18.5753 6.68668 18.5753 7.33126 18.5753 7.97585C18.5753 8.12702 18.5116 8.19254 18.3619 8.19547C18.2663 8.19693 18.1708 8.19693 18.0757 8.19547C18.0176 8.19586 17.9601 8.18467 17.9064 8.16255C17.8528 8.14044 17.8041 8.10783 17.7632 8.06666C17.7223 8.02548 17.69 7.97656 17.6682 7.92275C17.6465 7.86894 17.6357 7.81133 17.6364 7.7533C17.635 7.20645 17.635 6.65972 17.6364 6.11311C17.6404 6.00512 17.6281 5.89714 17.5998 5.79283C17.5453 5.61567 17.4241 5.51794 17.243 5.49049C17.0758 5.47014 16.9063 5.48156 16.7433 5.52416C16.6738 5.5399 16.6522 5.57431 16.6525 5.64459C16.6547 6.39715 16.6547 7.14959 16.6525 7.90191C16.6525 7.93192 16.6525 7.9623 16.6525 7.99232C16.6427 8.12921 16.5793 8.19327 16.4417 8.1951C16.2685 8.1973 16.0952 8.1973 15.9219 8.1951C15.7803 8.1951 15.7162 8.12702 15.7162 7.98536C15.7162 7.2533 15.7162 6.52123 15.7162 5.78917M19.0654 6.4063C19.0738 6.23097 19.0501 6.00367 19.0775 5.78002C19.1438 5.2361 19.4435 4.88434 19.9659 4.72951C20.3867 4.59739 20.8399 4.61197 21.2514 4.77087C21.732 4.95755 21.9834 5.32211 22.0241 5.83236C22.0537 6.20754 22.038 6.58419 22.034 6.96011C22.0299 7.33602 21.9146 7.68046 21.6137 7.93668C21.3879 8.12921 21.1185 8.21816 20.8301 8.25513C20.5205 8.29886 20.205 8.26953 19.9088 8.16948C19.3941 7.99195 19.0731 7.54979 19.0669 7.00623C19.0643 6.82321 19.0669 6.6402 19.0669 6.40703M20.053 6.41618C20.053 6.61897 20.0504 6.78221 20.053 6.94473C20.0585 7.23207 20.1932 7.39752 20.4714 7.43265C20.8008 7.47475 21.0867 7.35945 21.0969 6.95901C21.1053 6.62592 21.1028 6.29246 21.0969 5.95901C21.0921 5.68705 20.9505 5.51355 20.7104 5.46596C20.6383 5.45486 20.5652 5.45252 20.4926 5.45901C20.2558 5.47036 20.0954 5.6208 20.0643 5.85506C20.0383 6.05491 20.0603 6.25586 20.0519 6.41618M27.7484 6.73939C27.4897 6.73939 27.2312 6.74159 26.9725 6.73939C26.9073 6.73939 26.8802 6.76355 26.878 6.82467C26.8755 6.90959 26.8524 6.99342 26.8641 7.0809C26.8956 7.31369 27.0665 7.46962 27.3063 7.48866C27.5852 7.51062 27.8436 7.44181 28.0921 7.32321C28.2883 7.22951 28.3275 7.24049 28.4443 7.42643C28.5222 7.55015 28.587 7.67716 28.5175 7.82907C28.4927 7.89835 28.4445 7.95684 28.3813 7.99451C27.7766 8.30015 27.1555 8.36055 26.5347 8.06333C26.1482 7.88031 25.9406 7.54063 25.908 7.11677C25.876 6.66406 25.876 6.20966 25.908 5.75696C25.9406 5.24744 26.2777 4.84371 26.7865 4.69839C27.1355 4.59507 27.5069 4.59419 27.8564 4.69583C28.3323 4.83456 28.6042 5.16399 28.6829 5.64752C28.7312 5.94839 28.714 6.25293 28.7085 6.55601C28.706 6.68448 28.6353 6.74085 28.5025 6.74122H27.7484M27.3531 6.1768C27.4959 6.1768 27.639 6.1768 27.7818 6.1768C27.8286 6.1768 27.8513 6.16143 27.8498 6.11164C27.8476 6.03405 27.852 5.95608 27.848 5.87885C27.8345 5.61238 27.6877 5.43961 27.4318 5.40667C27.1676 5.37189 26.9146 5.47438 26.8685 5.80711C26.8546 5.90703 26.8648 6.00733 26.8605 6.10725C26.8579 6.15996 26.8809 6.17753 26.9318 6.1768C27.0724 6.17497 27.2126 6.1768 27.3531 6.1768ZM22.5753 6.52782C22.5753 6.05881 22.5753 5.5898 22.5753 5.1208C22.5753 4.96194 22.6273 4.89678 22.7777 4.84664C23.1533 4.71686 23.5476 4.64947 23.945 4.64715C24.3304 4.64715 24.7009 4.7145 25.0065 4.97658C25.2517 5.18705 25.3652 5.46487 25.4143 5.77599C25.4278 5.87789 25.4333 5.9807 25.4307 6.08346C25.4307 6.71303 25.4307 7.34261 25.4307 7.97219C25.4307 8.13361 25.3707 8.1951 25.2074 8.194C25.0848 8.194 24.9615 8.20498 24.8392 8.18522C24.6353 8.15191 24.5032 8.0022 24.5025 7.79576C24.5003 7.26135 24.5025 6.72731 24.5025 6.1929C24.5054 6.07259 24.4962 5.95229 24.475 5.83383C24.4267 5.5992 24.2722 5.46779 24.0336 5.45718C23.8906 5.45188 23.7474 5.46034 23.6061 5.48244C23.5329 5.49378 23.5127 5.52599 23.5131 5.59627C23.5148 6.36347 23.5148 7.13092 23.5131 7.89861C23.5131 7.92863 23.5131 7.95901 23.5131 7.98866C23.5113 8.03598 23.4912 8.08076 23.4571 8.1136C23.423 8.14643 23.3774 8.16475 23.3301 8.16472C23.1368 8.16838 22.9432 8.16875 22.7499 8.16472C22.6401 8.16252 22.5753 8.08822 22.5749 7.97182C22.5749 7.49012 22.5749 7.00855 22.5749 6.52709" fill="#5F259F"/>
<path d="M5.81097 5.21451C5.81097 5.49306 5.80914 5.77125 5.81097 6.04943C5.81438 6.07647 5.80761 6.1038 5.79198 6.12613C5.77636 6.14845 5.75299 6.16417 5.72642 6.17022C5.54767 6.23169 5.35794 6.25464 5.16968 6.23757C4.84941 6.20719 4.67042 6.01795 4.64333 5.69328C4.61844 5.39533 4.63674 5.09702 4.63162 4.7987C4.62942 4.65229 4.63162 4.50807 4.63162 4.36276C4.63162 4.30236 4.65138 4.27784 4.71471 4.2782C5.05109 4.2804 5.38747 4.28113 5.72349 4.2782C5.7967 4.2782 5.81207 4.30785 5.8117 4.37264C5.80951 4.65338 5.8117 4.93413 5.8117 5.21451" fill="#5F259F"/>
</svg>
