<svg width="32" height="32" viewBox="0 0 32 32" fill="none" xmlns="http://www.w3.org/2000/svg">
<g clip-path="url(#clip0_35_6861)">
<path d="M16 32C24.8366 32 32 24.8366 32 16C32 7.16344 24.8366 0 16 0C7.16344 0 0 7.16344 0 16C0 24.8366 7.16344 32 16 32Z" fill="#EF0027"/>
<path d="M21.932 9.91287L7.5 7.25687L15.095 26.3689L25.678 13.4749L21.932 9.91287ZM21.7 11.0829L23.908 13.1819L17.87 14.2749L21.7 11.0829ZM16.558 14.0559L10.194 8.77787L20.596 10.6919L16.558 14.0559ZM16.105 14.9899L15.067 23.5699L9.472 9.48687L16.105 14.9889V14.9899ZM17.065 15.4449L23.752 14.2349L16.082 23.5779L17.065 15.4449Z" fill="white"/>
</g>
<defs>
<clipPath id="clip0_35_6861">
<rect width="32" height="32" fill="white"/>
</clipPath>
</defs>
</svg>
