<svg width="32" height="15" viewBox="0 0 32 15" fill="none" xmlns="http://www.w3.org/2000/svg">
<path d="M3.06571 10.6469H3.26259L3.07821 11.4125C3.05009 11.525 3.05634 11.6125 3.09384 11.6687C3.13134 11.725 3.20009 11.7531 3.30321 11.7531C3.40321 11.7531 3.48759 11.725 3.55321 11.6687C3.61884 11.6125 3.66259 11.525 3.69071 11.4125L3.87509 10.6469H4.07509L3.88759 11.4312C3.84696 11.6 3.77509 11.7281 3.66884 11.8125C3.56571 11.8969 3.42821 11.9406 3.25946 11.9406C3.09071 11.9406 2.97509 11.9 2.91259 11.8156C2.85009 11.7312 2.83759 11.6031 2.87821 11.4344L3.06571 10.6469ZM4.04696 11.9062L4.35946 10.5969L4.95321 11.3656C4.96884 11.3875 4.98446 11.4094 5.00009 11.4344C5.01571 11.4594 5.03134 11.4875 5.05009 11.5187L5.25946 10.6469H5.44384L5.13134 11.9531L4.52509 11.1687L4.47821 11.1031C4.46259 11.0781 4.45009 11.0562 4.44071 11.0281L4.23134 11.9031H4.04696V11.9062ZM5.42821 11.9062L5.72821 10.6469H5.92821L5.62821 11.9062H5.42821ZM5.91259 11.9062L6.21259 10.6469H6.89696L6.85634 10.8219H6.37196L6.29696 11.1344H6.78134L6.73759 11.3125H6.25321L6.11259 11.9031H5.91259V11.9062ZM6.81884 11.9062L7.11884 10.6469H7.31884L7.01884 11.9062H6.81884ZM7.30321 11.9062L7.60321 10.6469H8.28759L8.24696 10.8219H7.76259L7.68759 11.1375H8.17196L8.12821 11.3156H7.64384L7.54696 11.7219H8.03134L7.98759 11.9062H7.30321ZM8.21884 11.9062L8.51884 10.6469H8.78759C8.96259 10.6469 9.08446 10.6562 9.15009 10.675C9.21571 10.6937 9.27196 10.7219 9.31571 10.7656C9.37196 10.8219 9.40946 10.8937 9.42509 10.9781C9.44071 11.0656 9.43446 11.1656 9.40946 11.275C9.38134 11.3875 9.34071 11.4844 9.28446 11.5719C9.22821 11.6594 9.15634 11.7281 9.07196 11.7844C9.00946 11.8281 8.94071 11.8562 8.86571 11.875C8.79384 11.8937 8.68446 11.9031 8.54071 11.9031H8.21884V11.9062ZM8.46259 11.7187H8.63134C8.72196 11.7187 8.79384 11.7125 8.84384 11.7C8.89384 11.6875 8.93759 11.6656 8.97821 11.6375C9.03446 11.5969 9.08134 11.5469 9.11884 11.4844C9.15634 11.425 9.18446 11.3531 9.20321 11.2719C9.22196 11.1906 9.22821 11.1219 9.21884 11.0625C9.20946 11.0031 9.18759 10.95 9.15009 10.9094C9.12196 10.8781 9.08759 10.8594 9.04071 10.8469C8.99384 10.8344 8.92196 10.8281 8.81884 10.8281H8.67509L8.46259 11.7187ZM10.3282 11.3406L10.1938 11.9062H10.0063L10.3063 10.6469H10.6095C10.7001 10.6469 10.7626 10.6531 10.8032 10.6625C10.8438 10.6719 10.8751 10.6875 10.9001 10.7125C10.9313 10.7406 10.9532 10.7812 10.9626 10.8312C10.972 10.8812 10.9688 10.9344 10.9563 10.9937C10.9407 11.0531 10.9188 11.1094 10.8845 11.1594C10.8501 11.2094 10.8095 11.25 10.7657 11.2781C10.7282 11.3 10.6876 11.3187 10.6438 11.3281C10.6001 11.3375 10.5313 11.3437 10.4438 11.3437H10.3282V11.3406ZM10.3813 11.1719H10.4313C10.5407 11.1719 10.6188 11.1594 10.6626 11.1344C10.7063 11.1094 10.7345 11.0656 10.7501 11.0031C10.7657 10.9375 10.7563 10.8875 10.7251 10.8625C10.6907 10.8344 10.622 10.8219 10.5188 10.8219H10.4688L10.3813 11.1719ZM11.6345 11.9062L11.572 11.5812H11.0845L10.8657 11.9062H10.6563L11.5626 10.5969L11.8438 11.9062H11.6345ZM11.2032 11.4094H11.5438L11.4876 11.1219C11.4845 11.1031 11.4813 11.0812 11.4813 11.0594C11.4782 11.0344 11.4782 11.0094 11.4782 10.9812C11.4657 11.0094 11.4532 11.0344 11.4376 11.0594C11.4251 11.0844 11.4126 11.1062 11.4001 11.125L11.2032 11.4094ZM12.1313 11.9062L12.2688 11.3312L12.0188 10.65H12.2282L12.3845 11.0781C12.3876 11.0906 12.3907 11.1031 12.397 11.1219C12.4032 11.1406 12.4063 11.1594 12.4126 11.1781L12.4501 11.1219C12.4626 11.1031 12.4751 11.0875 12.4876 11.0719L12.8532 10.65H13.0532L12.4688 11.3281L12.3313 11.9031H12.1313V11.9062ZM14.0345 11.2844C14.0345 11.275 14.0376 11.2469 14.0438 11.2031C14.047 11.1656 14.0501 11.1375 14.0532 11.1125C14.0407 11.1406 14.0282 11.1687 14.0126 11.2C13.997 11.2281 13.9782 11.2594 13.9563 11.2875L13.4751 11.9594L13.3188 11.275C13.3126 11.2469 13.3063 11.2187 13.3032 11.1937C13.3001 11.1687 13.297 11.1406 13.297 11.1156C13.2907 11.1406 13.2813 11.1687 13.272 11.2C13.2626 11.2281 13.2501 11.2594 13.2345 11.2906L12.9532 11.9094H12.7688L13.372 10.5969L13.5438 11.3906C13.547 11.4031 13.5501 11.425 13.5532 11.4531C13.5563 11.4812 13.5626 11.5187 13.5688 11.5625C13.5907 11.525 13.6188 11.4812 13.6563 11.425C13.6657 11.4094 13.6751 11.4 13.6782 11.3906L14.222 10.5969L14.2032 11.9094H14.0188L14.0345 11.2844ZM14.3657 11.9062L14.6657 10.6469H15.3501L15.3095 10.8219H14.8251L14.7501 11.1375H15.2345L15.1907 11.3156H14.7063L14.6095 11.7219H15.0938L15.0501 11.9062H14.3657ZM15.2782 11.9062L15.5907 10.5969L16.1845 11.3656C16.2001 11.3875 16.2157 11.4094 16.2313 11.4344C16.247 11.4594 16.2626 11.4875 16.2813 11.5187L16.4907 10.6469H16.6751L16.3626 11.9531L15.7563 11.1687L15.7095 11.1031C15.6938 11.0781 15.6813 11.0562 15.672 11.0281L15.4626 11.9031H15.2782V11.9062ZM17.3126 10.8187L17.0532 11.9031H16.8532L17.1126 10.8187H16.7876L16.8282 10.6437H17.6782L17.6376 10.8187H17.3126ZM17.522 11.6531L17.7001 11.5781C17.7032 11.6344 17.7188 11.6781 17.7532 11.7062C17.7876 11.7344 17.8345 11.75 17.897 11.75C17.9563 11.75 18.0063 11.7344 18.0501 11.7C18.0938 11.6656 18.122 11.6219 18.1345 11.5656C18.1532 11.4906 18.1095 11.425 18.0032 11.3687C17.9876 11.3594 17.9782 11.3531 17.9688 11.35C17.8501 11.2812 17.7751 11.2219 17.7438 11.1656C17.7126 11.1094 17.7063 11.0437 17.7251 10.9656C17.7501 10.8625 17.8032 10.7812 17.8876 10.7156C17.972 10.6531 18.0657 10.6187 18.1782 10.6187C18.2688 10.6187 18.3407 10.6375 18.3938 10.6719C18.447 10.7062 18.4751 10.7594 18.4845 10.825L18.3095 10.9062C18.2938 10.8656 18.2751 10.8375 18.2501 10.8187C18.2251 10.8 18.1938 10.7906 18.1563 10.7906C18.1032 10.7906 18.0563 10.8062 18.0188 10.8344C17.9813 10.8625 17.9563 10.9 17.9438 10.95C17.9251 11.025 17.9782 11.0969 18.1001 11.1625C18.1095 11.1687 18.1157 11.1719 18.122 11.175C18.2282 11.2312 18.3001 11.2875 18.3313 11.3437C18.3626 11.4 18.3688 11.4656 18.3501 11.55C18.322 11.6687 18.2626 11.7625 18.172 11.8344C18.0813 11.9031 17.9751 11.9406 17.8501 11.9406C17.747 11.9406 17.6657 11.9156 17.6095 11.8656C17.547 11.8156 17.5188 11.7437 17.522 11.6531ZM18.9938 11.9062L19.2938 10.6469H19.4938L19.1938 11.9062H18.9938ZM19.4813 11.9062L19.7938 10.5969L20.3876 11.3656C20.4032 11.3875 20.4188 11.4094 20.4345 11.4344C20.4501 11.4594 20.4657 11.4875 20.4845 11.5187L20.6938 10.6469H20.8782L20.5657 11.9531L19.9595 11.1687L19.9126 11.1031C19.897 11.0781 19.8845 11.0562 19.8751 11.0281L19.6657 11.9031H19.4813V11.9062ZM21.5157 10.8187L21.2563 11.9031H21.0563L21.3157 10.8187H20.9907L21.0313 10.6437H21.8813L21.8407 10.8187H21.5157ZM21.7313 11.9062L22.0313 10.6469H22.7188L22.6782 10.8219H22.1938L22.1188 11.1375H22.6032L22.5595 11.3156H22.0751L21.9782 11.7219H22.4626L22.4188 11.9062H21.7313ZM22.9657 11.3406L22.8313 11.9031H22.6438L22.9438 10.6437H23.222C23.3032 10.6437 23.3657 10.65 23.4063 10.6594C23.4501 10.6687 23.4845 10.6875 23.5095 10.7125C23.5407 10.7437 23.5595 10.7812 23.5688 10.8312C23.5782 10.8781 23.5751 10.9312 23.5626 10.9906C23.5376 11.0906 23.497 11.1719 23.4345 11.2281C23.372 11.2844 23.2938 11.3187 23.2001 11.3312L23.4845 11.9031H23.2595L22.9876 11.3406H22.9657ZM23.0157 11.1812H23.0532C23.1595 11.1812 23.2313 11.1687 23.272 11.1437C23.3126 11.1187 23.3407 11.075 23.3563 11.0094C23.372 10.9406 23.3657 10.8906 23.3345 10.8625C23.3032 10.8344 23.2376 10.8187 23.1376 10.8187H23.1001L23.0157 11.1812ZM23.6063 11.9062L23.9063 10.6469H24.5907L24.5501 10.8219H24.0657L23.9907 11.1344H24.4751L24.4313 11.3125H23.947L23.8063 11.9031H23.6063V11.9062ZM25.2563 11.9062L25.1938 11.5812H24.7063L24.4876 11.9062H24.2782L25.1845 10.5969L25.4657 11.9062H25.2563ZM24.822 11.4094H25.1626L25.1063 11.1219C25.1032 11.1031 25.1001 11.0812 25.1001 11.0594C25.097 11.0344 25.097 11.0094 25.097 10.9812C25.0845 11.0094 25.072 11.0344 25.0563 11.0594C25.0438 11.0844 25.0313 11.1062 25.0188 11.125L24.822 11.4094ZM26.7657 10.9531C26.722 10.9031 26.6688 10.8656 26.6126 10.8437C26.5563 10.8187 26.4938 10.8062 26.422 10.8062C26.2876 10.8062 26.1688 10.85 26.0626 10.9375C25.9563 11.025 25.8876 11.1406 25.8532 11.2812C25.822 11.4156 25.8345 11.5281 25.897 11.6187C25.9563 11.7062 26.0501 11.75 26.1751 11.75C26.247 11.75 26.3188 11.7375 26.3907 11.7094C26.4626 11.6844 26.5345 11.6437 26.6095 11.5906L26.5532 11.8219C26.4907 11.8625 26.4251 11.8906 26.3563 11.9094C26.2876 11.9281 26.2188 11.9375 26.1438 11.9375C26.0501 11.9375 25.9657 11.9219 25.8938 11.8906C25.822 11.8594 25.7626 11.8125 25.7157 11.75C25.6688 11.6906 25.6407 11.6187 25.6282 11.5375C25.6157 11.4562 25.6188 11.3687 25.6438 11.275C25.6657 11.1812 25.7032 11.0969 25.7532 11.0156C25.8032 10.9344 25.8688 10.8625 25.9438 10.8031C26.0188 10.7406 26.1001 10.6937 26.1876 10.6625C26.2751 10.6312 26.3626 10.6156 26.4532 10.6156C26.5251 10.6156 26.5907 10.625 26.6532 10.6469C26.7126 10.6687 26.7688 10.7 26.8188 10.7437L26.7657 10.9531ZM26.7845 11.9062L27.0845 10.6469H27.7688L27.7282 10.8219H27.2438L27.1688 11.1375H27.6532L27.6095 11.3156H27.1251L27.0282 11.7219H27.5126L27.4688 11.9062H26.7845Z" fill="#3D3D3C"/>
<path d="M23.1468 9.54999H21.7749L23.6812 2.66562H25.053L23.1468 9.54999ZM22.4343 2.88124C22.3405 2.74999 22.1937 2.68437 21.9937 2.68437H14.4562L14.0843 4.03437H20.9405L20.5405 5.47499H15.0562V5.47187H13.6843L12.5468 9.58124H13.9187L14.6812 6.82499H20.8468C21.0405 6.82499 21.2218 6.75937 21.3905 6.62812C21.5593 6.49687 21.6718 6.33437 21.7249 6.14062L22.4874 3.38437C22.5468 3.17812 22.528 3.01249 22.4343 2.88124ZM11.7468 9.11874C11.6718 9.39062 11.4218 9.58124 11.1405 9.58124H4.06866C3.87491 9.58124 3.73116 9.51562 3.63741 9.38437C3.54366 9.25312 3.52179 9.09062 3.57804 8.89687L5.30304 2.68437H6.67491L5.13429 8.23437H10.6218L12.1624 2.68437H13.5343L11.7468 9.11874Z" fill="#70706E"/>
<path d="M27.4218 2.67813L29.1562 6.12813L25.5093 9.57813L27.4218 2.67813Z" fill="#098041"/>
<path d="M26.2032 2.67813L27.9376 6.12813L24.2876 9.57813L26.2032 2.67813Z" fill="#E97626"/>
</svg>
