<svg width="32" height="32" viewBox="0 0 32 32" fill="none" xmlns="http://www.w3.org/2000/svg">
<g clip-path="url(#clip0_35_6860)">
<path d="M16 32C19.1645 32 22.2579 31.0616 24.8891 29.3035C27.5203 27.5454 29.5711 25.0466 30.7821 22.1229C31.9931 19.1993 32.3099 15.9823 31.6926 12.8786C31.0752 9.77486 29.5513 6.92393 27.3137 4.68629C25.0761 2.44865 22.2251 0.924799 19.1214 0.307435C16.0177 -0.309928 12.8007 0.00692486 9.87705 1.21793C6.95344 2.42893 4.45458 4.47969 2.69647 7.11088C0.938371 9.74206 -1.25945e-05 12.8355 -1.25945e-05 16C-0.00519263 18.1026 0.405124 20.1855 1.20736 22.1291C2.0096 24.0726 3.18796 25.8385 4.67473 27.3253C6.1615 28.812 7.92738 29.9904 9.87093 30.7926C11.8145 31.5949 13.8974 32.0052 16 32Z" fill="#2775CA"/>
<path d="M20.4 18.5338C20.4 16.2065 19.0007 15.3993 16.2007 15.0662C14.1993 14.8 13.8007 14.2662 13.8007 13.3338C13.8007 12.4015 14.4669 11.7993 15.7993 11.7993C17.0007 11.7993 17.6669 12.1993 18 13.2C18.0358 13.2964 18.1003 13.3795 18.1849 13.4381C18.2694 13.4966 18.3699 13.5277 18.4727 13.5273H19.5389C19.6007 13.5289 19.6621 13.5179 19.7195 13.495C19.7769 13.4721 19.829 13.4378 19.8726 13.3941C19.9163 13.3504 19.9507 13.2983 19.9736 13.2409C19.9965 13.1835 20.0074 13.1221 20.0058 13.0604V12.9949C19.877 12.2723 19.5132 11.6126 18.9708 11.1181C18.4284 10.6236 17.7379 10.322 17.0066 10.2604V8.66036C17.0066 8.39418 16.8058 8.19491 16.4727 8.128H15.472C15.2058 8.128 15.0066 8.32727 14.9397 8.66036V10.1993C12.9338 10.4727 11.6669 11.7993 11.6669 13.4662C11.6669 15.6669 13.0007 16.5338 15.8007 16.8669C17.6669 17.2 18.2735 17.5942 18.2735 18.6662C18.2735 19.7382 17.3411 20.4669 16.0742 20.4669C14.3404 20.4669 13.7469 19.7396 13.5404 18.7331C13.5213 18.6206 13.4634 18.5185 13.3768 18.4443C13.2901 18.3701 13.1802 18.3287 13.0662 18.3273H11.9273C11.8656 18.3259 11.8043 18.337 11.747 18.36C11.6897 18.3829 11.6377 18.4173 11.594 18.4609C11.5504 18.5046 11.5161 18.5566 11.4931 18.6139C11.4701 18.6711 11.459 18.7325 11.4604 18.7942V18.8611C11.728 20.528 12.7942 21.728 14.9949 22.0611V23.6611C14.9949 23.9273 15.1942 24.128 15.5273 24.1949H16.528C16.7942 24.1949 16.9949 23.9942 17.0604 23.6611V22.0611C19.0604 21.728 20.3942 20.3273 20.3942 18.528L20.4 18.5338Z" fill="white"/>
<path d="M12.5993 25.5331C10.681 24.8295 9.02507 23.5539 7.85523 21.8788C6.68539 20.2037 6.05807 18.2097 6.05807 16.1665C6.05807 14.1234 6.68539 12.1294 7.85523 10.4543C9.02507 8.77915 10.681 7.50358 12.5993 6.8C12.7273 6.74464 12.8347 6.65067 12.9067 6.53123C12.9787 6.41179 13.0116 6.27285 13.0007 6.13382V5.2C13.0097 5.07751 12.974 4.95592 12.9001 4.85776C12.8263 4.75961 12.7194 4.69154 12.5993 4.66618C12.5054 4.65639 12.4111 4.68009 12.3331 4.73309C9.90604 5.50451 7.78744 7.02824 6.28394 9.08374C4.78043 11.1392 3.97003 13.6199 3.97003 16.1665C3.97003 18.7132 4.78043 21.1938 6.28394 23.2493C7.78744 25.3048 9.90604 26.8286 12.3331 27.6C12.3885 27.6322 12.4508 27.6508 12.5148 27.6543C12.5788 27.6578 12.6427 27.6461 12.7013 27.6201C12.7599 27.5942 12.8116 27.5547 12.852 27.5049C12.8924 27.4551 12.9204 27.3965 12.9338 27.3338C13.0007 27.2669 13.0007 27.2 13.0007 27.0662V26.1338C13.0007 25.9331 12.8 25.6669 12.5993 25.5331ZM19.6669 4.73309C19.6114 4.70089 19.549 4.68232 19.4849 4.67891C19.4208 4.6755 19.3568 4.68734 19.2982 4.71346C19.2395 4.73958 19.1879 4.77924 19.1476 4.82918C19.1073 4.87912 19.0794 4.93791 19.0662 5.00073C19.0007 5.06618 19.0007 5.13309 19.0007 5.26691V6.19927C19.0119 6.33372 19.0538 6.46381 19.1232 6.57954C19.1925 6.69528 19.2875 6.79358 19.4007 6.86691C21.3189 7.57049 22.9749 8.84606 24.1447 10.5212C25.3146 12.1963 25.9419 14.1903 25.9419 16.2335C25.9419 18.2766 25.3146 20.2706 24.1447 21.9457C22.9749 23.6208 21.3189 24.8964 19.4007 25.6C19.2729 25.6554 19.1655 25.7494 19.0938 25.8689C19.0221 25.9884 18.9895 26.1273 19.0007 26.2662V27.2C18.9917 27.3223 19.0272 27.4437 19.1007 27.5418C19.1743 27.64 19.2808 27.7082 19.4007 27.7338C19.4946 27.7436 19.5888 27.7199 19.6669 27.6669C22.093 26.8848 24.2085 25.3534 25.7092 23.2929C27.2099 21.2324 28.0184 18.749 28.0184 16.2C28.0184 13.651 27.2099 11.1676 25.7092 9.1071C24.2085 7.04661 22.093 5.51518 19.6669 4.73309Z" fill="white"/>
</g>
<defs>
<clipPath id="clip0_35_6860">
<rect width="32" height="32" fill="white"/>
</clipPath>
</defs>
</svg>
