<svg width="23" height="26" viewBox="0 0 23 26" fill="none" xmlns="http://www.w3.org/2000/svg">
<path d="M21.6489 24.5H1.26785C1.13295 24.5 1.03498 24.3717 1.07048 24.2416L2.01924 20.7628C2.33429 19.6076 2.94534 18.5547 3.79199 17.708L4.73478 16.7652C6.109 15.391 8.16995 14.968 9.97437 15.6897L10.406 15.8624C11.4199 16.268 12.5588 16.2206 13.5355 15.7323C15.0073 14.9964 16.7848 15.2848 17.9484 16.4484L19.0131 17.5131C19.6621 18.1621 20.1511 18.9533 20.4413 19.824L21.889 24.1669C21.9436 24.3308 21.8216 24.5 21.6489 24.5Z" stroke="#35BD00" stroke-width="2"/>
<rect x="6" y="1" width="11" height="11" rx="5.5" stroke="#35BD00" stroke-width="2"/>
</svg>
