<svg width="16" height="15" viewBox="0 0 16 15" fill="none" xmlns="http://www.w3.org/2000/svg">
<path d="M4 6.875C4 5.10723 4 4.22335 4.58579 3.67418C5.17157 3.125 6.11438 3.125 8 3.125H10C11.8856 3.125 12.8284 3.125 13.4142 3.67418C14 4.22335 14 5.10723 14 6.875V10C14 11.7677 14 12.6516 13.4142 13.2008C12.8284 13.75 11.8856 13.75 10 13.75H8C6.11438 13.75 5.17157 13.75 4.58579 13.2008C4 12.6516 4 11.7677 4 10V6.875Z" stroke="#35BD00"/>
<path d="M4 11.875C2.89543 11.875 2 11.0356 2 10V6.25C2 3.89297 2 2.71447 2.78105 1.98223C3.5621 1.25 4.81917 1.25 7.33333 1.25H10C11.1046 1.25 12 2.08947 12 3.125" stroke="#35BD00"/>
</svg>
