<svg width="28" height="28" viewBox="0 0 28 28" fill="none" xmlns="http://www.w3.org/2000/svg">
<path fill-rule="evenodd" clip-rule="evenodd" d="M14 0.666504C6.63619 0.666504 0.666626 6.63598 0.666626 13.9998C0.666626 21.3636 6.63619 27.3332 14 27.3332C21.3638 27.3332 27.3333 21.3636 27.3333 13.9998C27.3333 6.63598 21.3638 0.666504 14 0.666504ZM14 24.6665C8.11837 24.6665 3.33329 19.8814 3.33329 13.9998C3.33329 8.11825 8.11837 3.33317 14 3.33317C19.8816 3.33317 24.6666 8.11825 24.6666 13.9998C24.6666 19.8814 19.8816 24.6665 14 24.6665ZM15.6695 8.6665C15.6695 9.63322 14.9657 10.3332 14.0135 10.3332C13.0228 10.3332 12.3362 9.63323 12.3362 8.64801C12.3362 7.70111 13.0414 6.99984 14.0135 6.99984C14.9657 6.99984 15.6695 7.7011 15.6695 8.6665ZM12.6695 12.6665H15.3362V20.6665H12.6695V12.6665Z" fill="black"/>
</svg>
