<svg width="27" height="24" viewBox="0 0 27 24" fill="none" xmlns="http://www.w3.org/2000/svg">
<path d="M9.28125 10.1251H17.7188C18.1849 10.1251 18.5625 9.78946 18.5625 9.37509V8.62509C18.5625 8.21072 18.1849 7.8751 17.7188 7.8751H9.28125C8.81508 7.8751 8.4375 8.21072 8.4375 8.62509V9.37509C8.4375 9.78946 8.81508 10.1251 9.28125 10.1251ZM8.4375 13.8751C8.4375 14.2894 8.81508 14.6251 9.28125 14.6251H17.7188C18.1849 14.6251 18.5625 14.2894 18.5625 13.8751V13.1251C18.5625 12.7107 18.1849 12.3751 17.7188 12.3751H9.28125C8.81508 12.3751 8.4375 12.7107 8.4375 13.1251V13.8751ZM13.5 19.553C12.6341 19.553 11.7682 19.3158 11.0289 18.841L0 11.7591V21.75C0 22.9927 1.13326 24 2.53125 24H24.4688C25.8667 24 27 22.9927 27 21.75V11.7591L15.9711 18.841C15.2318 19.3153 14.3659 19.553 13.5 19.553ZM26.0302 7.63838C25.5635 7.31307 25.1211 7.00698 24.4688 6.56917V4.50012C24.4688 3.25747 23.3355 2.25013 21.9375 2.25013H17.8479C17.6876 2.14701 17.5384 2.05044 17.3712 1.94263C16.4848 1.36748 14.7234 -0.0162615 13.5 0.000144626C12.2766 -0.0162615 10.5158 1.36748 9.62877 1.94263C9.4616 2.05044 9.31236 2.14701 9.15205 2.25013H5.0625C3.66451 2.25013 2.53125 3.25747 2.53125 4.50012V6.56917C1.87893 7.00651 1.43648 7.31307 0.969785 7.63838C0.667701 7.84881 0.423412 8.11756 0.2554 8.42429C0.0873876 8.73101 5.19859e-05 9.06769 0 9.40884L0 9.90805L5.0625 13.1588V4.50012H21.9375V13.1588L27 9.90805V9.40884C27 8.7179 26.6425 8.06494 26.0302 7.63838Z" fill="black"/>
</svg>
