<svg width="18" height="18" viewBox="0 0 18 18" fill="none" xmlns="http://www.w3.org/2000/svg">
<g clip-path="url(#clip0_29_81)">
<path d="M2.25 6.75H6.75V2.25H2.25V6.75ZM3 3H6V6H3V3ZM3.75 3.75H5.25V5.25H3.75V3.75ZM11.25 6.75H15.75V2.25H11.25V6.75ZM12 3H15V6H12V3ZM12.75 3.75H14.25V5.25H12.75V3.75ZM2.25 15.75H6.75V11.25H2.25V15.75ZM3 12H6V15H3V12ZM3.75 12.75H5.25V14.25H3.75V12.75ZM15 14.25H15.75V15.75H14.25V13.5H15V14.25ZM15 12H15.75V12.75H15V12ZM15 11.25V12H14.25V11.25H15ZM7.5 12.75H8.25V15.75H7.5V12.75ZM4.5 7.5V9H3V8.25H2.25V7.5H4.5ZM7.5 5.25H8.25V6H7.5V5.25ZM9.75 3V4.5H9V2.25H10.5V3H9.75ZM7.5 3H8.25V3.75H7.5V3ZM15 9H15.75V10.5H14.25V9.75H15V9ZM14.25 7.5V8.25H12.75V9.75H11.25V9H12V7.5H14.25ZM9 10.5H8.25V9.75H7.5V9H9V10.5ZM13.5 12H14.25V12.75H13.5V12ZM15 8.25V9H14.25V8.25H15ZM8.25 10.5V11.25H7.5V10.5H8.25ZM12.75 14.25H13.5V15.75H12V14.25H12.75ZM10.5 14.25H11.25V15H10.5V15.75H9V15H9.75V14.25H10.5ZM10.5 13.5V12.75H12V13.5H10.5ZM10.5 9.75H11.25V12H10.5V12.75H9.75V13.5H9V12H8.25V11.25H10.5V10.5H9.75V9.75H10.5ZM3.75 9.75V10.5H3V9.75H3.75ZM12.75 12.75H12V12H12.75V12.75ZM13.5 11.25H12V10.5H13.5V11.25ZM6 7.5H6.75V8.25H6V9H6.75V10.5H6V9.75H5.25V10.5H4.5V9H5.25V7.5H6ZM8.25 7.5V6H10.5V8.25H9V7.5H9.75V6.75H9V7.5H8.25ZM8.25 4.5H9V5.25H8.25V4.5ZM7.5 7.5H8.25V8.25H7.5V7.5ZM9.75 5.25V4.5H10.5V5.25H9.75Z" fill="#35BD00"/>
</g>
<defs>
<clipPath id="clip0_29_81">
<rect width="18" height="18" fill="white"/>
</clipPath>
</defs>
</svg>
