<svg width="28" height="28" viewBox="0 0 28 28" fill="none" xmlns="http://www.w3.org/2000/svg">
<g clip-path="url(#clip0_13_272)">
<mask id="mask0_13_272" style="mask-type:luminance" maskUnits="userSpaceOnUse" x="0" y="0" width="28" height="28">
<path d="M0 28L28 28L28 0L0 0L0 28Z" fill="white"/>
</mask>
<g mask="url(#mask0_13_272)">
<path d="M18.666 12.8333V22.75C18.666 23.2141 18.4816 23.6592 18.1535 23.9874C17.8253 24.3156 17.3801 24.5 16.916 24.5C16.4519 24.5 16.0068 24.3156 15.6786 23.9874C15.3504 23.6592 15.166 23.2141 15.166 22.75V14" stroke="black" stroke-width="2" stroke-linecap="round" stroke-linejoin="round"/>
<path d="M15.166 14.5837V16.917C15.166 17.1468 15.1208 17.3744 15.0328 17.5867C14.9449 17.799 14.816 17.9919 14.6535 18.1544C14.491 18.3169 14.298 18.4458 14.0857 18.5338C13.8734 18.6217 13.6458 18.667 13.416 18.667C13.1862 18.667 12.9586 18.6217 12.7463 18.5338C12.534 18.4458 12.3411 18.3169 12.1786 18.1544C12.0161 17.9919 11.8872 17.799 11.7992 17.5867C11.7113 17.3744 11.666 17.1468 11.666 16.917V14.0003" stroke="black" stroke-width="2" stroke-linecap="round" stroke-linejoin="round"/>
<path d="M11.666 15.75C11.666 16.2141 11.4816 16.6592 11.1535 16.9874C10.8253 17.3156 10.3801 17.5 9.91602 17.5C9.45189 17.5 9.00677 17.3156 8.67858 16.9874C8.35039 16.6592 8.16602 16.2141 8.16602 15.75V14" stroke="black" stroke-width="2" stroke-linecap="round" stroke-linejoin="round"/>
<path d="M8.16748 14.584C8.16748 15.0481 7.9831 15.4932 7.65492 15.8214C7.32673 16.1496 6.88161 16.334 6.41748 16.334C5.95335 16.334 5.50823 16.1496 5.18004 15.8214C4.85186 15.4932 4.66748 15.0481 4.66748 14.584V9.33399C4.66748 7.47747 5.40498 5.69699 6.71773 4.38424C8.03049 3.07148 9.81096 2.33398 11.6675 2.33398H14.0009H13.7582C14.9175 2.33379 16.0586 2.62151 17.0792 3.17132C18.0999 3.72112 18.9679 4.5158 19.6055 5.48398C19.682 5.60046 19.7583 5.71712 19.8342 5.83398C20.1982 6.39282 21.4757 8.61998 23.6679 12.5167C23.8913 12.9139 23.951 13.3826 23.8342 13.8231C23.7175 14.2637 23.4333 14.6413 23.0424 14.8757C22.6261 15.1255 22.1382 15.229 21.6562 15.1698C21.1743 15.1106 20.7261 14.8921 20.3825 14.549L18.6675 12.834" stroke="black" stroke-width="2" stroke-linecap="round" stroke-linejoin="round"/>
</g>
</g>
<defs>
<clipPath id="clip0_13_272">
<rect width="28" height="28" fill="white"/>
</clipPath>
</defs>
</svg>
