<svg width="26" height="26" viewBox="0 0 26 26" fill="none" xmlns="http://www.w3.org/2000/svg">
<path d="M19 3.25V3.34375H19.0938H21.5312C22.4761 3.34375 23.3822 3.71909 24.0503 4.38718C24.7184 5.05528 25.0938 5.96142 25.0938 6.90625V21.5312C25.0938 22.4761 24.7184 23.3822 24.0503 24.0503C23.3822 24.7184 22.4761 25.0938 21.5312 25.0938H4.46875C3.52392 25.0938 2.61778 24.7184 1.94968 24.0503C1.28159 23.3822 0.90625 22.4761 0.90625 21.5312V6.90625C0.90625 5.96142 1.28159 5.05528 1.94968 4.38718C2.61778 3.71909 3.52392 3.34375 4.46875 3.34375H6.90625H7V3.25V2.03125C7 1.73288 7.11853 1.44674 7.3295 1.23575C7.54047 1.02478 7.82659 0.90625 8.125 0.90625C8.42341 0.90625 8.70953 1.02478 8.92047 1.23575C9.1315 1.44674 9.25 1.73288 9.25 2.03125V3.25V3.34375H9.34375H16.6562H16.75V3.25V2.03125C16.75 1.73288 16.8685 1.44674 17.0795 1.23575C17.2905 1.02478 17.5766 0.90625 17.875 0.90625C18.1734 0.90625 18.4595 1.02478 18.6705 1.23575C18.8815 1.44674 19 1.73288 19 2.03125V3.25ZM3.25 12.9062H3.15625V13V21.5312C3.15625 21.8793 3.29453 22.2132 3.54067 22.4594C3.78681 22.7055 4.12066 22.8438 4.46875 22.8438H21.5312C21.8793 22.8438 22.2132 22.7055 22.4594 22.4594C22.7055 22.2132 22.8438 21.8793 22.8438 21.5312V13V12.9062H22.75H3.25ZM22.75 10.6562H22.8438V10.5625V6.90625C22.8438 6.55816 22.7055 6.22431 22.4594 5.97817C22.2132 5.73203 21.8793 5.59375 21.5312 5.59375H19.0938H19V5.6875V6.90625C19 7.20462 18.8815 7.49078 18.6705 7.70172C18.4595 7.91275 18.1734 8.03125 17.875 8.03125C17.5766 8.03125 17.2905 7.91275 17.0795 7.70172C16.8685 7.49078 16.75 7.20462 16.75 6.90625V5.6875V5.59375H16.6562H9.34375H9.25V5.6875V6.90625C9.25 7.20462 9.1315 7.49078 8.92047 7.70172C8.70953 7.91275 8.42341 8.03125 8.125 8.03125C7.82659 8.03125 7.54047 7.91275 7.3295 7.70172C7.11853 7.49078 7 7.20462 7 6.90625V5.6875V5.59375H6.90625H4.46875C4.12066 5.59375 3.78681 5.73203 3.54067 5.97817C3.29453 6.22431 3.15625 6.55816 3.15625 6.90625V10.5625V10.6562H3.25H22.75Z" fill="white" stroke="#FFCA3A" stroke-width="0.2"/>
</svg>
