<svg width="27" height="26" viewBox="0 0 27 26" fill="none" xmlns="http://www.w3.org/2000/svg">
<path d="M7.03158 16.1271C6.86195 16.1271 6.69396 16.1594 6.53723 16.2222C6.3805 16.285 6.23808 16.3771 6.11813 16.4932C5.99818 16.6093 5.90304 16.7471 5.83814 16.8988C5.77325 17.0505 5.73987 17.213 5.73991 17.3772V19.605C4.07502 17.7829 3.1562 15.4344 3.15658 13.0022C3.15634 12.6346 3.17909 12.2673 3.22469 11.9023C3.2456 11.7391 3.23303 11.5735 3.18769 11.4151C3.14236 11.2565 3.06515 11.1082 2.96049 10.9787C2.85583 10.8491 2.72578 10.7408 2.5778 10.66C2.42981 10.5792 2.26679 10.5274 2.09809 10.5077C1.92939 10.4879 1.75832 10.5005 1.59468 10.5449C1.43105 10.5892 1.27805 10.6644 1.14449 10.766C1.01092 10.8678 0.899399 10.9938 0.816309 11.1374C0.733219 11.2808 0.68019 11.4387 0.660282 11.602C0.60177 12.0665 0.572707 12.5342 0.57325 13.0022C0.575003 15.9848 1.68273 18.8679 3.69504 21.1272H1.86491C1.52234 21.1272 1.1938 21.2588 0.951566 21.4933C0.70933 21.7277 0.57325 22.0457 0.57325 22.3772C0.57325 22.7087 0.70933 23.0267 0.951566 23.261C1.1938 23.4955 1.52234 23.6271 1.86491 23.6271H7.03158C7.23359 23.6247 7.43208 23.5756 7.6105 23.4839C7.78893 23.3921 7.94209 23.2605 8.05737 23.0999C8.07238 23.0807 8.09166 23.0664 8.10561 23.0462C8.11423 23.0337 8.11452 23.019 8.12256 23.0063C8.18408 22.9057 8.23019 22.7969 8.25945 22.6834C8.27853 22.6197 8.29209 22.5545 8.30004 22.4885C8.30372 22.45 8.32329 22.4167 8.32329 22.3772V17.3772C8.32329 17.213 8.28996 17.0505 8.22506 16.8988C8.16015 16.7471 8.06502 16.6093 7.94509 16.4932C7.82506 16.3771 7.68269 16.285 7.52595 16.2222C7.36921 16.1594 7.20122 16.1271 7.03158 16.1271ZM8.96906 5.50216H6.66673C8.54969 3.89104 10.9765 3.00187 13.4899 3.00216C13.8696 3.00127 14.2489 3.02329 14.6258 3.06808C14.7942 3.08788 14.9651 3.07536 15.1286 3.03127C15.292 2.98717 15.445 2.91234 15.5785 2.81106C15.7121 2.70979 15.8237 2.58403 15.9071 2.44099C15.9906 2.29794 16.0439 2.14041 16.0644 1.97738C16.0849 1.81435 16.0719 1.64901 16.0264 1.49082C15.9808 1.33263 15.9035 1.18466 15.7988 1.05538C15.6942 0.926099 15.5642 0.818043 15.4164 0.737362C15.2686 0.65668 15.1058 0.604968 14.9373 0.585168C14.457 0.529096 13.9737 0.501374 13.4899 0.502152C10.4078 0.503774 7.42866 1.57569 5.09408 3.52302V1.75216C5.09408 1.42063 4.958 1.1027 4.71576 0.868274C4.47352 0.633852 4.14498 0.502152 3.80241 0.502152C3.45984 0.502152 3.1313 0.633852 2.88907 0.868274C2.64683 1.1027 2.51075 1.42063 2.51075 1.75216V6.75216C2.51887 6.83478 2.53589 6.91635 2.56152 6.99554L2.56183 6.99707C2.5932 7.15088 2.65512 7.29734 2.74418 7.42835L2.75892 7.44944C2.84428 7.56953 2.95125 7.67388 3.07474 7.75741C3.08886 7.76734 3.09587 7.78272 3.11053 7.79219C3.12899 7.8041 3.14987 7.80785 3.16872 7.81863C3.24197 7.86128 3.3196 7.89644 3.40034 7.92363C3.50947 7.96038 3.62324 7.9826 3.73855 7.98972C3.76094 7.99085 3.77978 8.00219 3.80241 8.00219H8.96906C9.31161 8.00219 9.64021 7.87047 9.8824 7.6361C10.1247 7.40163 10.2608 7.08371 10.2608 6.75219C10.2608 6.42067 10.1247 6.10273 9.8824 5.86831C9.64021 5.63389 9.31161 5.50216 8.96906 5.50216ZM24.418 19.0072C24.3866 18.8534 24.3247 18.7068 24.2356 18.5759L24.221 18.5549C24.1355 18.4347 24.0285 18.3303 23.905 18.2468C23.8908 18.237 23.8838 18.2215 23.8693 18.212C23.8554 18.2031 23.8388 18.2028 23.8245 18.1944C23.6607 18.1063 23.4812 18.0488 23.2953 18.0251C23.2545 18.0213 23.2193 18.0021 23.1774 18.0021H18.0108C17.6681 18.0021 17.3396 18.1338 17.0974 18.3682C16.8552 18.6026 16.7191 18.9206 16.7191 19.2521C16.7191 19.5836 16.8552 19.9016 17.0974 20.136C17.3396 20.3704 17.6681 20.5021 18.0108 20.5021H20.313C18.4301 22.1132 16.0033 23.0024 13.4899 23.0021C13.1102 23.0026 12.7308 22.9802 12.3541 22.935C12.0138 22.8949 11.6711 22.9874 11.4013 23.1919C11.1315 23.3965 10.9567 23.6964 10.9154 24.0257C10.8741 24.3549 10.9696 24.6866 11.181 24.9477C11.3924 25.2088 11.7022 25.3779 12.0424 25.4178C12.5227 25.4739 13.0061 25.502 13.4899 25.5021C16.572 25.5004 19.5512 24.4286 21.8858 22.4812V24.2522C21.8858 24.5837 22.0218 24.9017 22.2641 25.136C22.5063 25.3705 22.8349 25.5021 23.1774 25.5021C23.52 25.5021 23.8486 25.3705 24.0908 25.136C24.3329 24.9017 24.4691 24.5837 24.4691 24.2522V19.2522C24.4609 19.1695 24.444 19.0879 24.4183 19.0088L24.418 19.0072ZM25.1149 4.87715C25.4575 4.87715 25.7861 4.74546 26.0283 4.51103C26.2704 4.27662 26.4066 3.95868 26.4066 3.62716C26.4066 3.29563 26.2704 2.9777 26.0283 2.74327C25.7861 2.50885 25.4575 2.37715 25.1149 2.37715H19.9483C19.8642 2.385 19.7811 2.40121 19.7005 2.42553L19.6919 2.42721C19.535 2.45757 19.3856 2.51678 19.2518 2.60162L19.2265 2.61816C19.103 2.70064 18.9956 2.80384 18.9096 2.92289C18.8995 2.93639 18.8838 2.94303 18.8741 2.957C18.8649 2.97042 18.8646 2.98629 18.8559 2.99994C18.7638 3.15943 18.704 3.33453 18.6798 3.51576C18.6761 3.55438 18.6566 3.58764 18.6566 3.62716V8.62713C18.6566 8.95872 18.7927 9.27663 19.0349 9.511C19.2771 9.74547 19.6056 9.87719 19.9483 9.87719C20.2908 9.87719 20.6193 9.74547 20.8616 9.511C21.1038 9.27663 21.2399 8.95872 21.2399 8.62713V6.39856C22.9047 8.221 23.8235 10.5696 23.8233 13.0021C23.8235 13.3698 23.8007 13.737 23.7551 14.1019C23.7142 14.431 23.8098 14.7623 24.021 15.0232C24.2322 15.284 24.5416 15.4532 24.8816 15.4936C24.9339 15.4994 24.9866 15.5023 25.0393 15.5021C25.3546 15.5017 25.659 15.3896 25.8948 15.187C26.1307 14.9844 26.2818 14.7052 26.3196 14.4022C26.3781 13.9377 26.4071 13.4702 26.4066 13.0022C26.4048 10.0194 25.297 7.13636 23.2847 4.87715H25.1149Z" fill="white" stroke="#FFCA3A" stroke-width="0.4"/>
</svg>
