<svg width="22" height="28" viewBox="0 0 22 28" fill="none" xmlns="http://www.w3.org/2000/svg">
<mask id="mask0_14_407" style="mask-type:luminance" maskUnits="userSpaceOnUse" x="0" y="0" width="22" height="28">
<path d="M20.8355 3.03823C20.6858 2.91484 20.5107 2.82722 20.3234 2.78177C20.136 2.73633 19.941 2.73423 19.7527 2.77565C18.3753 3.06967 16.9533 3.07341 15.5744 2.78666C14.1955 2.4999 12.8888 1.92871 11.7347 1.10825C11.519 0.955788 11.2626 0.874084 11 0.874084C10.7374 0.874084 10.481 0.955788 10.2653 1.10825C9.11122 1.92871 7.80453 2.4999 6.42556 2.78666C5.04667 3.07341 3.62471 3.06967 2.24727 2.77565C2.05899 2.73423 1.86399 2.73633 1.67661 2.78177C1.48922 2.82722 1.31422 2.91484 1.16446 3.03823C1.0149 3.1618 0.894423 3.31793 0.811886 3.49515C0.729357 3.67236 0.686851 3.86616 0.687507 4.06231V13.8434C0.686364 15.7258 1.12678 17.5813 1.9721 19.2553C2.81741 20.9293 4.04317 22.3733 5.54731 23.4672L10.2523 26.8807C10.4707 27.039 10.732 27.1241 11 27.1241C11.268 27.1241 11.5293 27.039 11.7477 26.8807L16.4527 23.4672C17.9568 22.3733 19.1826 20.9293 20.0279 19.2553C20.8732 17.5813 21.3136 15.7258 21.3125 13.8434V4.06231C21.3132 3.86616 21.2707 3.67236 21.1881 3.49515C21.1056 3.31793 20.9851 3.1618 20.8355 3.03823ZM18.7344 13.8434C18.7353 15.3071 18.3931 16.7497 17.7362 18.0514C17.0792 19.353 16.1265 20.4762 14.9574 21.327L11 24.2023L7.04262 21.327C5.87347 20.4762 4.92076 19.353 4.26382 18.0514C3.60686 16.7497 3.26464 15.3071 3.26563 13.8434V5.57215C5.96806 5.80772 8.67462 5.16912 11 3.7472C13.3254 5.16912 16.0319 5.80772 18.7344 5.57215V13.8434ZM13.6883 10.1208L9.51762 14.3818L8.37031 13.2001C8.12759 12.9529 7.79834 12.8141 7.45512 12.8141C7.11181 12.8141 6.78256 12.9529 6.53984 13.2001C6.29712 13.4473 6.16072 13.7827 6.16072 14.1323C6.16072 14.482 6.29712 14.8172 6.53984 15.0645L8.60234 17.1652C8.72215 17.2882 8.86475 17.3859 9.02187 17.4525C9.1789 17.5192 9.34737 17.5535 9.51762 17.5535C9.68778 17.5535 9.85625 17.5192 10.0133 17.4525C10.1704 17.3859 10.313 17.2882 10.4328 17.1652L15.5703 11.972C15.813 11.7248 15.9494 11.3894 15.9494 11.0398C15.9494 10.6902 15.813 10.3549 15.5703 10.1077C15.3276 9.86047 14.9983 9.72153 14.655 9.72153C14.3118 9.72153 13.9826 9.86047 13.7398 10.1077L13.6883 10.1208Z" fill="white"/>
</mask>
<g mask="url(#mask0_14_407)">
<path d="M20.8355 3.03823C20.6858 2.91484 20.5107 2.82722 20.3234 2.78177C20.136 2.73633 19.941 2.73423 19.7527 2.77565C18.3753 3.06967 16.9533 3.07341 15.5744 2.78666C14.1955 2.4999 12.8888 1.92871 11.7347 1.10825C11.519 0.955788 11.2626 0.874084 11 0.874084C10.7374 0.874084 10.481 0.955788 10.2653 1.10825C9.11122 1.92871 7.80453 2.4999 6.42556 2.78666C5.04667 3.07341 3.62471 3.06967 2.24727 2.77565C2.05899 2.73423 1.86399 2.73633 1.67661 2.78177C1.48922 2.82722 1.31422 2.91484 1.16446 3.03823C1.0149 3.1618 0.894423 3.31793 0.811886 3.49515C0.729357 3.67236 0.686851 3.86616 0.687507 4.06231V13.8434C0.686364 15.7258 1.12678 17.5813 1.9721 19.2553C2.81741 20.9293 4.04317 22.3733 5.54731 23.4672L10.2523 26.8807C10.4707 27.039 10.732 27.1241 11 27.1241C11.268 27.1241 11.5293 27.039 11.7477 26.8807L16.4527 23.4672C17.9568 22.3733 19.1826 20.9293 20.0279 19.2553C20.8732 17.5813 21.3136 15.7258 21.3125 13.8434V4.06231C21.3132 3.86616 21.2707 3.67236 21.1881 3.49515C21.1056 3.31793 20.9851 3.1618 20.8355 3.03823ZM18.7344 13.8434C18.7353 15.3071 18.3931 16.7497 17.7362 18.0514C17.0792 19.353 16.1265 20.4762 14.9574 21.327L11 24.2023L7.04262 21.327C5.87347 20.4762 4.92076 19.353 4.26382 18.0514C3.60686 16.7497 3.26464 15.3071 3.26563 13.8434V5.57215C5.96806 5.80772 8.67462 5.16912 11 3.7472C13.3254 5.16912 16.0319 5.80772 18.7344 5.57215V13.8434ZM13.6883 10.1208L9.51762 14.3818L8.37031 13.2001C8.12759 12.9529 7.79834 12.8141 7.45512 12.8141C7.11181 12.8141 6.78256 12.9529 6.53984 13.2001C6.29712 13.4473 6.16072 13.7827 6.16072 14.1323C6.16072 14.482 6.29712 14.8172 6.53984 15.0645L8.60234 17.1652C8.72215 17.2882 8.86475 17.3859 9.02187 17.4525C9.1789 17.5192 9.34737 17.5535 9.51762 17.5535C9.68778 17.5535 9.85625 17.5192 10.0133 17.4525C10.1704 17.3859 10.313 17.2882 10.4328 17.1652L15.5703 11.972C15.813 11.7248 15.9494 11.3894 15.9494 11.0398C15.9494 10.6902 15.813 10.3549 15.5703 10.1077C15.3276 9.86047 14.9983 9.72153 14.655 9.72153C14.3118 9.72153 13.9826 9.86047 13.7398 10.1077L13.6883 10.1208Z" fill="white" stroke="#FFCA3A" stroke-width="0.4"/>
</g>
</svg>
