<svg width="30" height="30" viewBox="0 0 30 30" fill="none" xmlns="http://www.w3.org/2000/svg">
<path d="M23.8157 10.1356L24.939 9.01227C25.4517 8.49971 25.4517 7.66869 24.939 7.15613C24.4266 6.64368 23.5958 6.64356 23.0833 7.15586L21.7695 8.46876C20.3914 7.64189 18.7849 7.15627 17.0629 7.15627C11.9981 7.15627 7.87549 11.2775 7.87549 16.3437C7.87549 21.41 11.9981 25.5311 17.0629 25.5311C22.1278 25.5311 26.2504 21.41 26.2504 16.3437C26.2494 14.0416 25.3799 11.8247 23.8157 10.1356ZM17.0629 22.9061C13.4444 22.9061 10.5005 19.9623 10.5005 16.3437C10.5005 12.7252 13.4444 9.78122 17.0629 9.78122C20.6815 9.78122 23.6254 12.7252 23.6254 16.3437C23.6254 19.9623 20.6815 22.9061 17.0629 22.9061Z" fill="white"/>
<mask id="mask0_13_291" style="mask-type:luminance" maskUnits="userSpaceOnUse" x="7" y="6" width="20" height="20">
<path d="M23.8157 10.1356L24.939 9.01227C25.4517 8.49971 25.4517 7.66869 24.939 7.15613C24.4266 6.64368 23.5958 6.64356 23.0833 7.15586L21.7695 8.46876C20.3914 7.64189 18.7849 7.15627 17.0629 7.15627C11.9981 7.15627 7.87549 11.2775 7.87549 16.3437C7.87549 21.41 11.9981 25.5311 17.0629 25.5311C22.1278 25.5311 26.2504 21.41 26.2504 16.3437C26.2494 14.0416 25.3799 11.8247 23.8157 10.1356ZM17.0629 22.9061C13.4444 22.9061 10.5005 19.9623 10.5005 16.3437C10.5005 12.7252 13.4444 9.78122 17.0629 9.78122C20.6815 9.78122 23.6254 12.7252 23.6254 16.3437C23.6254 19.9623 20.6815 22.9061 17.0629 22.9061Z" fill="white"/>
</mask>
<g mask="url(#mask0_13_291)">
<path d="M23.8157 10.1356L23.6832 10.003L23.5556 10.1306L23.6782 10.263L23.8157 10.1356ZM21.7695 8.46876L21.6731 8.62954L21.7986 8.70484L21.9021 8.60138L21.7695 8.46876ZM23.9483 10.2683L25.0717 9.14485L24.8065 8.87968L23.6832 10.003L23.9483 10.2683ZM22.9507 7.02324L21.637 8.33614L21.9021 8.60138L23.2157 7.28848L22.9507 7.02324ZM21.866 8.30798C20.4604 7.4646 18.8208 6.96877 17.0629 6.96877V7.34377C18.7491 7.34377 20.3225 7.81917 21.6731 8.62954L21.866 8.30798ZM17.0629 6.96877C11.8945 6.96877 7.68799 11.1739 7.68799 16.3437H8.06299C8.06299 11.3811 12.1016 7.34377 17.0629 7.34377V6.96877ZM7.68799 16.3437C7.68799 21.5135 11.8945 25.7186 17.0629 25.7186V25.3436C12.1016 25.3436 8.06299 21.3064 8.06299 16.3437H7.68799ZM17.0629 25.7186C22.2313 25.7186 26.4379 21.5135 26.4379 16.3437H26.0629C26.0629 21.3064 22.0243 25.3436 17.0629 25.3436V25.7186ZM26.4379 16.3437C26.4368 13.9944 25.5495 11.7319 23.9532 10.0082L23.6782 10.263C25.2102 11.9174 26.0619 14.0888 26.0629 16.3437H26.4379ZM17.0629 22.7186C13.5479 22.7186 10.688 19.8587 10.688 16.3437H10.313C10.313 20.0658 13.3408 23.0936 17.0629 23.0936V22.7186ZM10.688 16.3437C10.688 12.8288 13.5479 9.96872 17.0629 9.96872V9.59372C13.3408 9.59372 10.313 12.6217 10.313 16.3437H10.688ZM17.0629 9.96872C20.578 9.96872 23.4379 12.8288 23.4379 16.3437H23.8129C23.8129 12.6217 20.7851 9.59372 17.0629 9.59372V9.96872ZM23.4379 16.3437C23.4379 19.8587 20.578 22.7186 17.0629 22.7186V23.0936C20.7851 23.0936 23.8129 20.0658 23.8129 16.3437H23.4379ZM25.0717 7.02355C24.486 6.43789 23.5365 6.43775 22.9507 7.02324L23.2157 7.28848C23.6551 6.84937 24.3672 6.84947 24.8065 7.28872L25.0717 7.02355ZM25.0717 9.14485C25.6574 8.55907 25.6574 7.60933 25.0717 7.02355L24.8065 7.28872C25.2458 7.72805 25.2458 8.44035 24.8065 8.87968L25.0717 9.14485Z" fill="#FFCA3A"/>
</g>
<path d="M15.7499 13.7189C15.7499 12.994 16.3375 12.4064 17.0624 12.4064C17.7873 12.4064 18.3749 12.994 18.3749 13.7189V16.3439C18.3749 17.0688 17.7873 17.6564 17.0624 17.6564C16.3375 17.6564 15.7499 17.0688 15.7499 16.3439V13.7189ZM14.4374 4.53149C14.4374 3.80662 15.025 3.21899 15.7499 3.21899H18.3749C19.0998 3.21899 19.6874 3.80662 19.6874 4.53149C19.6874 5.25636 19.0998 5.84398 18.3749 5.84398H15.7499C15.025 5.84398 14.4374 5.25636 14.4374 4.53149ZM1.31249 11.0939C1.31249 10.3691 1.90012 9.7815 2.62498 9.7815H5.24997C5.97484 9.7815 6.56246 10.3691 6.56246 11.0939C6.56246 11.8188 5.97484 12.4064 5.24997 12.4064H2.62498C1.90012 12.4064 1.31249 11.8188 1.31249 11.0939ZM1.31249 21.5939C1.31249 20.869 1.90012 20.2814 2.62498 20.2814H5.24997C5.97484 20.2814 6.56246 20.869 6.56246 21.5939C6.56246 22.3188 5.97484 22.9064 5.24997 22.9064H2.62498C1.90012 22.9064 1.31249 22.3188 1.31249 21.5939ZM0 16.3439C0 15.619 0.587622 15.0314 1.31249 15.0314H3.92436C4.64922 15.0314 5.23685 15.619 5.23685 16.3439C5.23685 17.0688 4.64922 17.6564 3.92436 17.6564H1.31249C0.587622 17.6564 0 17.0688 0 16.3439Z" fill="white"/>
</svg>
