<svg width="26" height="26" viewBox="0 0 26 26" fill="none" xmlns="http://www.w3.org/2000/svg">
<mask id="mask0_14_402" style="mask-type:luminance" maskUnits="userSpaceOnUse" x="0" y="0" width="26" height="26">
<path d="M24.2495 0.49939H16.7495C16.418 0.49939 16.1001 0.63108 15.8656 0.865502C15.6312 1.09992 15.4995 1.41787 15.4995 1.74939C15.4995 2.08091 15.6312 2.39885 15.8656 2.63327C16.1001 2.86769 16.418 2.99938 16.7495 2.99938H22.9995V9.24934C22.9995 9.58093 23.1312 9.89884 23.3656 10.1333C23.6001 10.3677 23.918 10.4994 24.2495 10.4994C24.5811 10.4994 24.899 10.3677 25.1334 10.1333C25.3678 9.89884 25.4995 9.58093 25.4995 9.24934V1.74939C25.4995 1.41787 25.3678 1.09992 25.1334 0.865502C24.899 0.63108 24.5811 0.49939 24.2495 0.49939ZM24.2495 15.4994C23.918 15.4994 23.6001 15.6311 23.3656 15.8655C23.1312 16.0999 22.9995 16.4178 22.9995 16.7493V22.9994H16.7495C16.418 22.9994 16.1001 23.1311 15.8656 23.3655C15.6312 23.5999 15.4995 23.9178 15.4995 24.2493C15.4995 24.5809 15.6312 24.8988 15.8656 25.1333C16.1001 25.3677 16.418 25.4994 16.7495 25.4994H24.2495C24.5811 25.4994 24.899 25.3677 25.1334 25.1333C25.3678 24.8988 25.4995 24.5809 25.4995 24.2493V16.7493C25.4995 16.4178 25.3678 16.0999 25.1334 15.8655C24.899 15.6311 24.5811 15.4994 24.2495 15.4994ZM12.9995 5.49939C12.005 5.49939 11.0512 5.89448 10.3478 6.59773C9.64462 7.301 9.24946 8.25484 9.24946 9.24934V10.4994C8.58646 10.4994 7.95056 10.7627 7.48171 11.2316C7.0129 11.7004 6.74951 12.3363 6.74951 12.9993V17.9994C6.74951 18.6624 7.0129 19.2983 7.48171 19.7672C7.95056 20.236 8.58646 20.4993 9.24946 20.4993H16.7495C17.4126 20.4993 18.0485 20.236 18.5173 19.7672C18.9862 19.2983 19.2495 18.6624 19.2495 17.9994V12.9993C19.2495 12.3363 18.9862 11.7004 18.5173 11.2316C18.0485 10.7627 17.4126 10.4994 16.7495 10.4994V9.24934C16.7495 8.25484 16.3544 7.301 15.6512 6.59773C14.9479 5.89448 13.9941 5.49939 12.9995 5.49939ZM11.7495 9.24934C11.7495 8.91784 11.8812 8.59993 12.1156 8.36546C12.3501 8.13109 12.668 7.99937 12.9995 7.99937C13.3311 7.99937 13.649 8.13109 13.8834 8.36546C14.1178 8.59993 14.2495 8.91784 14.2495 9.24934V10.4994H11.7495V9.24934ZM16.7495 17.9994H9.24946V12.9993H16.7495V17.9994ZM1.74951 10.4994C2.08103 10.4994 2.39897 10.3677 2.63339 10.1333C2.86782 9.89884 2.99951 9.58093 2.99951 9.24934V2.99938H9.24946C9.58106 2.99938 9.89896 2.86769 10.1334 2.63327C10.3678 2.39885 10.4995 2.08091 10.4995 1.74939C10.4995 1.41787 10.3678 1.09992 10.1334 0.865502C9.89896 0.63108 9.58106 0.49939 9.24946 0.49939H1.74951C1.41799 0.49939 1.10005 0.63108 0.865624 0.865502C0.631202 1.09992 0.499512 1.41787 0.499512 1.74939V9.24934C0.499512 9.58093 0.631202 9.89884 0.865624 10.1333C1.10005 10.3677 1.41799 10.4994 1.74951 10.4994ZM9.24946 22.9994H2.99951V16.7493C2.99951 16.4178 2.86782 16.0999 2.63339 15.8655C2.39897 15.6311 2.08103 15.4994 1.74951 15.4994C1.41799 15.4994 1.10005 15.6311 0.865624 15.8655C0.631202 16.0999 0.499512 16.4178 0.499512 16.7493V24.2493C0.499512 24.5809 0.631202 24.8988 0.865624 25.1333C1.10005 25.3677 1.41799 25.4994 1.74951 25.4994H9.24946C9.58106 25.4994 9.89896 25.3677 10.1334 25.1333C10.3678 24.8988 10.4995 24.5809 10.4995 24.2493C10.4995 23.9178 10.3678 23.5999 10.1334 23.3655C9.89896 23.1311 9.58106 22.9994 9.24946 22.9994Z" fill="white"/>
</mask>
<g mask="url(#mask0_14_402)">
<path d="M24.2495 0.49939H16.7495C16.418 0.49939 16.1001 0.63108 15.8656 0.865502C15.6312 1.09992 15.4995 1.41787 15.4995 1.74939C15.4995 2.08091 15.6312 2.39885 15.8656 2.63327C16.1001 2.86769 16.418 2.99938 16.7495 2.99938H22.9995V9.24934C22.9995 9.58093 23.1312 9.89884 23.3656 10.1333C23.6001 10.3677 23.918 10.4994 24.2495 10.4994C24.5811 10.4994 24.899 10.3677 25.1334 10.1333C25.3678 9.89884 25.4995 9.58093 25.4995 9.24934V1.74939C25.4995 1.41787 25.3678 1.09992 25.1334 0.865502C24.899 0.63108 24.5811 0.49939 24.2495 0.49939ZM24.2495 15.4994C23.918 15.4994 23.6001 15.6311 23.3656 15.8655C23.1312 16.0999 22.9995 16.4178 22.9995 16.7493V22.9994H16.7495C16.418 22.9994 16.1001 23.1311 15.8656 23.3655C15.6312 23.5999 15.4995 23.9178 15.4995 24.2493C15.4995 24.5809 15.6312 24.8988 15.8656 25.1333C16.1001 25.3677 16.418 25.4994 16.7495 25.4994H24.2495C24.5811 25.4994 24.899 25.3677 25.1334 25.1333C25.3678 24.8988 25.4995 24.5809 25.4995 24.2493V16.7493C25.4995 16.4178 25.3678 16.0999 25.1334 15.8655C24.899 15.6311 24.5811 15.4994 24.2495 15.4994ZM12.9995 5.49939C12.005 5.49939 11.0512 5.89448 10.3478 6.59773C9.64462 7.301 9.24946 8.25484 9.24946 9.24934V10.4994C8.58646 10.4994 7.95056 10.7627 7.48171 11.2316C7.0129 11.7004 6.74951 12.3363 6.74951 12.9993V17.9994C6.74951 18.6624 7.0129 19.2983 7.48171 19.7672C7.95056 20.236 8.58646 20.4993 9.24946 20.4993H16.7495C17.4126 20.4993 18.0485 20.236 18.5173 19.7672C18.9862 19.2983 19.2495 18.6624 19.2495 17.9994V12.9993C19.2495 12.3363 18.9862 11.7004 18.5173 11.2316C18.0485 10.7627 17.4126 10.4994 16.7495 10.4994V9.24934C16.7495 8.25484 16.3544 7.301 15.6512 6.59773C14.9479 5.89448 13.9941 5.49939 12.9995 5.49939ZM11.7495 9.24934C11.7495 8.91784 11.8812 8.59993 12.1156 8.36546C12.3501 8.13109 12.668 7.99937 12.9995 7.99937C13.3311 7.99937 13.649 8.13109 13.8834 8.36546C14.1178 8.59993 14.2495 8.91784 14.2495 9.24934V10.4994H11.7495V9.24934ZM16.7495 17.9994H9.24946V12.9993H16.7495V17.9994ZM1.74951 10.4994C2.08103 10.4994 2.39897 10.3677 2.63339 10.1333C2.86782 9.89884 2.99951 9.58093 2.99951 9.24934V2.99938H9.24946C9.58106 2.99938 9.89896 2.86769 10.1334 2.63327C10.3678 2.39885 10.4995 2.08091 10.4995 1.74939C10.4995 1.41787 10.3678 1.09992 10.1334 0.865502C9.89896 0.63108 9.58106 0.49939 9.24946 0.49939H1.74951C1.41799 0.49939 1.10005 0.63108 0.865624 0.865502C0.631202 1.09992 0.499512 1.41787 0.499512 1.74939V9.24934C0.499512 9.58093 0.631202 9.89884 0.865624 10.1333C1.10005 10.3677 1.41799 10.4994 1.74951 10.4994ZM9.24946 22.9994H2.99951V16.7493C2.99951 16.4178 2.86782 16.0999 2.63339 15.8655C2.39897 15.6311 2.08103 15.4994 1.74951 15.4994C1.41799 15.4994 1.10005 15.6311 0.865624 15.8655C0.631202 16.0999 0.499512 16.4178 0.499512 16.7493V24.2493C0.499512 24.5809 0.631202 24.8988 0.865624 25.1333C1.10005 25.3677 1.41799 25.4994 1.74951 25.4994H9.24946C9.58106 25.4994 9.89896 25.3677 10.1334 25.1333C10.3678 24.8988 10.4995 24.5809 10.4995 24.2493C10.4995 23.9178 10.3678 23.5999 10.1334 23.3655C9.89896 23.1311 9.58106 22.9994 9.24946 22.9994Z" fill="white" stroke="#FFCA3A" stroke-width="0.4"/>
</g>
</svg>
