<svg width="26" height="24" viewBox="0 0 26 24" fill="none" xmlns="http://www.w3.org/2000/svg">
<path d="M22.9995 13.4741V10.7491C22.9995 8.09691 21.9459 5.55339 20.0706 3.67802C18.1952 1.80266 15.6516 0.749084 12.9995 0.749084C10.3474 0.749084 7.80384 1.80266 5.92844 3.67802C4.05308 5.55339 2.99951 8.09691 2.99951 10.7491V13.4741C2.27007 13.7319 1.63826 14.2092 1.19068 14.8403C0.743102 15.4714 0.501677 16.2254 0.499512 16.9991V19.4991C0.499512 20.4937 0.894593 21.4475 1.59786 22.1508C2.30111 22.854 3.25495 23.2491 4.24951 23.2491H7.99949C8.33099 23.2491 8.64899 23.1173 8.88337 22.883C9.11784 22.6486 9.24946 22.3306 9.24946 21.9991V14.4991C9.24946 14.1676 9.11784 13.8496 8.88337 13.6152C8.64899 13.3808 8.33099 13.2491 7.99949 13.2491H5.49951V10.7491C5.49951 8.76 6.28968 6.85228 7.69621 5.44579C9.10274 4.03927 11.0104 3.24909 12.9995 3.24909C14.9886 3.24909 16.8963 4.03927 18.3028 5.44579C19.7093 6.85228 20.4995 8.76 20.4995 10.7491V13.2491H17.9995C17.668 13.2491 17.35 13.3808 17.1157 13.6152C16.8812 13.8496 16.7495 14.1676 16.7495 14.4991V21.9991C16.7495 22.3306 16.8812 22.6486 17.1157 22.883C17.35 23.1173 17.668 23.2491 17.9995 23.2491H21.7495C22.744 23.2491 23.6979 22.854 24.4011 22.1508C25.1045 21.4475 25.4995 20.4937 25.4995 19.4991V16.9991C25.4974 16.2254 25.2559 15.4714 24.8083 14.8403C24.3607 14.2092 23.729 13.7319 22.9995 13.4741ZM6.74951 15.7491V20.7491H4.24951C3.91798 20.7491 3.60005 20.6174 3.36563 20.3829C3.13121 20.1486 2.99951 19.8306 2.99951 19.4991V16.9991C2.99951 16.6675 3.13121 16.3496 3.36563 16.1152C3.60005 15.8808 3.91798 15.7491 4.24951 15.7491H6.74951ZM22.9995 19.4991C22.9995 19.8306 22.8678 20.1486 22.6334 20.3829C22.3989 20.6174 22.081 20.7491 21.7495 20.7491H19.2495V15.7491H21.7495C22.081 15.7491 22.3989 15.8808 22.6334 16.1152C22.8678 16.3496 22.9995 16.6675 22.9995 16.9991V19.4991Z" fill="white" stroke="#FFCA3A" stroke-width="0.4"/>
</svg>
