<svg width="28" height="22" viewBox="0 0 28 22" fill="none" xmlns="http://www.w3.org/2000/svg">
<path d="M14.3144 11.1965L14.206 11.2918L14.3371 11.3521C15.9931 12.1136 17.3983 13.3433 18.3846 14.8945C19.3708 16.4458 19.8964 18.2527 19.8981 20.0994C19.8981 20.3967 19.7817 20.6816 19.5751 20.8914C19.3685 21.1012 19.0887 21.2188 18.7971 21.2188C18.5055 21.2188 18.2256 21.1012 18.019 20.8914C17.8123 20.6816 17.696 20.3967 17.696 20.0993C17.696 18.1442 16.9312 16.269 15.5694 14.8861C14.2075 13.5033 12.36 12.7261 10.4335 12.7261C8.50681 12.7261 6.65939 13.5033 5.29752 14.8861C3.93568 16.269 3.17086 18.1442 3.17086 20.0993C3.17086 20.3967 3.05451 20.6816 2.84787 20.8914C2.64126 21.1012 2.36136 21.2188 2.06981 21.2188C1.77825 21.2188 1.49835 21.1012 1.29175 20.8914C1.08509 20.6816 0.96875 20.3967 0.96875 20.0993C0.970503 18.2526 1.49599 16.4457 2.48224 14.8945C3.4685 13.3433 4.87373 12.1136 6.52975 11.3521L6.66088 11.2918L6.55247 11.1965C5.92507 10.6451 5.42174 9.96294 5.07674 9.19625C4.73173 8.42966 4.55315 7.59659 4.55316 6.75369C4.55316 5.16923 5.17303 3.64996 6.27596 2.53003C7.37884 1.41013 8.87431 0.78125 10.4335 0.78125C11.9925 0.78125 13.488 1.41013 14.5909 2.53003C15.6939 3.64996 16.3138 5.16923 16.3138 6.75369C16.3138 7.59659 16.1352 8.42966 15.7902 9.19625C15.4452 9.96294 14.9418 10.6451 14.3144 11.1965ZM22.0002 10.7199L21.9282 10.8022L22.0206 10.8608C23.5618 11.8389 24.8314 13.2011 25.7084 14.818C26.5855 16.4349 27.0408 18.2527 27.0311 20.0988C27.0311 20.3962 26.9147 20.6816 26.7081 20.8914C26.5015 21.1012 26.2216 21.2188 25.9301 21.2188C25.6385 21.2188 25.3586 21.1012 25.152 20.8914C24.9454 20.6816 24.8291 20.3968 24.829 20.0996C24.8416 18.4636 24.3937 16.858 23.5377 15.4717C22.6821 14.0859 21.4544 12.9769 19.9989 12.2754L19.8495 12.1938L19.3873 11.8808C19.2311 11.7764 19.1031 11.633 19.0162 11.4645C18.9294 11.296 18.8862 11.1077 18.8908 10.9175C18.8957 10.7257 18.9491 10.5385 19.0456 10.3738C19.1422 10.209 19.2787 10.0724 19.4418 9.97681C19.9995 9.64981 20.4629 9.18003 20.7854 8.61444C21.108 8.04885 21.2787 7.40731 21.2804 6.75397C21.2804 5.76425 20.8932 4.8145 20.2036 4.11423C19.5139 3.41392 18.5783 3.02023 17.6022 3.02023C17.3107 3.02023 17.0308 2.90263 16.8242 2.69284C16.6176 2.483 16.5012 2.1981 16.5012 1.90074C16.5012 1.60337 16.6176 1.31847 16.8242 1.10863C17.0308 0.898841 17.3107 0.78125 17.6022 0.78125C18.7355 0.780941 19.8447 1.1132 20.7964 1.73818C21.7482 2.36317 22.502 3.25431 22.9669 4.3045C23.4319 5.35469 23.588 6.51903 23.4164 7.65734C23.2449 8.79566 22.7531 9.85916 22.0002 10.7199ZM8.38944 9.85756C8.99431 10.268 9.70559 10.4871 10.4335 10.4871C11.4094 10.4871 12.3451 10.0934 13.0347 9.39313C13.7244 8.69281 14.1116 7.74341 14.1116 6.75369C14.1116 6.01559 13.896 5.29395 13.4921 4.68003C13.0881 4.06609 12.5137 3.58737 11.8415 3.30461C11.1692 3.02185 10.4293 2.94784 9.71562 3.09201C9.00181 3.23618 8.34638 3.592 7.83208 4.11423C7.31778 4.63646 6.96771 5.30164 6.82589 6.02563C6.68408 6.74956 6.75686 7.49994 7.03506 8.18197C7.31328 8.864 7.78452 9.44713 8.38944 9.85756Z" fill="white"/>
<path d="M16.8242 1.10863C16.6176 1.31847 16.5012 1.60337 16.5012 1.90074C16.5012 2.1981 16.6176 2.483 16.8242 2.69284C17.0308 2.90263 17.3107 3.02023 17.6022 3.02023C18.5783 3.02023 19.5139 3.41392 20.2036 4.11423C20.8933 4.8145 21.2804 5.76425 21.2804 6.75397C21.2787 7.40731 21.108 8.04885 20.7854 8.61444C20.4629 9.18003 19.9995 9.64981 19.4418 9.97681C19.2787 10.0724 19.1422 10.209 19.0456 10.3738C18.9491 10.5385 18.8957 10.7257 18.8908 10.9175C18.8862 11.1077 18.9294 11.296 19.0162 11.4645C19.1031 11.633 19.2311 11.7764 19.3873 11.8808L19.8495 12.1938L19.9989 12.2754C21.4544 12.9769 22.6821 14.0859 23.5377 15.4717C24.3937 16.858 24.8416 18.4636 24.829 20.0996C24.8291 20.3968 24.9454 20.6816 25.152 20.8914C25.3586 21.1012 25.6385 21.2188 25.9301 21.2188C26.2216 21.2188 26.5015 21.1012 26.7081 20.8914C26.9147 20.6816 27.0311 20.3962 27.0311 20.0988C27.0408 18.2527 26.5855 16.4349 25.7084 14.818C24.8314 13.2011 23.5618 11.8389 22.0206 10.8608L21.9283 10.8022L22.0002 10.7199C22.7531 9.85916 23.2449 8.79566 23.4164 7.65734C23.588 6.51903 23.4319 5.35469 22.9669 4.3045C22.502 3.25431 21.7482 2.36317 20.7964 1.73818C19.8447 1.1132 18.7355 0.780941 17.6022 0.78125C17.3107 0.78125 17.0308 0.898841 16.8242 1.10863ZM16.8242 1.10863L16.7574 1.04285M14.3144 11.1965L14.206 11.2918L14.3371 11.3521C15.9931 12.1136 17.3983 13.3433 18.3846 14.8945C19.3708 16.4458 19.8964 18.2527 19.8981 20.0994C19.8981 20.3967 19.7817 20.6816 19.5751 20.8914C19.3685 21.1012 19.0887 21.2188 18.7971 21.2188C18.5055 21.2188 18.2256 21.1012 18.019 20.8914C17.8123 20.6816 17.696 20.3967 17.696 20.0993C17.696 18.1442 16.9312 16.269 15.5694 14.8861C14.2075 13.5033 12.36 12.7261 10.4335 12.7261C8.50681 12.7261 6.65939 13.5033 5.29752 14.8861C3.93568 16.269 3.17086 18.1442 3.17086 20.0993C3.17086 20.3967 3.05451 20.6816 2.84787 20.8914C2.64126 21.1012 2.36136 21.2188 2.06981 21.2188C1.77825 21.2188 1.49835 21.1012 1.29175 20.8914C1.08509 20.6816 0.96875 20.3967 0.96875 20.0993C0.970503 18.2526 1.49599 16.4457 2.48224 14.8945C3.4685 13.3433 4.87373 12.1136 6.52975 11.3521L6.66088 11.2918L6.55247 11.1965C5.92507 10.6451 5.42174 9.96294 5.07674 9.19625C4.73173 8.42966 4.55315 7.59659 4.55316 6.75369C4.55316 5.16923 5.17303 3.64996 6.27596 2.53003C7.37884 1.41013 8.87431 0.78125 10.4335 0.78125C11.9925 0.78125 13.488 1.41013 14.5909 2.53003C15.6939 3.64996 16.3138 5.16923 16.3138 6.75369C16.3138 7.59659 16.1352 8.42966 15.7902 9.19625C15.4452 9.96294 14.9418 10.6451 14.3144 11.1965ZM8.38944 9.85756C8.99431 10.268 9.70559 10.4871 10.4335 10.4871C11.4094 10.4871 12.3451 10.0934 13.0347 9.39313C13.7244 8.69281 14.1116 7.74341 14.1116 6.75369C14.1116 6.01559 13.896 5.29395 13.4921 4.68003C13.0881 4.06609 12.5137 3.58737 11.8415 3.30461C11.1692 3.02185 10.4293 2.94784 9.71562 3.09201C9.00181 3.23618 8.34638 3.592 7.83208 4.11423C7.31778 4.63646 6.96771 5.30164 6.82589 6.02563C6.68408 6.74956 6.75686 7.49994 7.03506 8.18197C7.31328 8.864 7.78452 9.44713 8.38944 9.85756Z" stroke="#FFCA3A" stroke-width="0.2"/>
</svg>
