<svg width="26" height="26" viewBox="0 0 26 26" fill="none" xmlns="http://www.w3.org/2000/svg">
<path d="M23.7622 21.9875C24.5455 20.9375 25.0831 19.725 25.3352 18.4394C25.5874 17.1538 25.5475 15.828 25.2188 14.5598C24.8901 13.2917 24.2808 12.1135 23.4359 11.1122C22.5909 10.111 21.532 9.31234 20.3372 8.77506C20.0769 7.2777 19.4787 5.85934 18.5882 4.62778C17.6977 3.39622 16.5381 2.38385 15.1975 1.6676C13.8571 0.951353 12.3711 0.550075 10.8522 0.494238C9.33347 0.438409 7.82184 0.729494 6.43245 1.34539C5.04301 1.96128 3.81224 2.88578 2.83365 4.04863C1.85506 5.21148 1.15439 6.58209 0.784891 8.05628C0.415404 9.5305 0.386791 11.0696 0.701248 12.5566C1.0157 14.0434 1.66495 15.4392 2.59966 16.6376L0.862151 18.3626C0.688704 18.5384 0.571207 18.7616 0.524491 19.004C0.477776 19.2466 0.503932 19.4974 0.599651 19.7251C0.693429 19.9533 0.852672 20.1487 1.05733 20.2866C1.26198 20.4246 1.50288 20.4989 1.74965 20.5001H8.86218C9.57047 21.9933 10.6872 23.2554 12.0831 24.1403C13.479 25.0252 15.0969 25.4966 16.7497 25.5001H24.2497C24.4964 25.4988 24.7373 25.4246 24.942 25.2867C25.1467 25.1488 25.3058 24.9533 25.3997 24.725C25.4954 24.4974 25.5216 24.2465 25.4748 24.0041C25.4281 23.7616 25.3106 23.5383 25.1372 23.3626L23.7622 21.9875ZM7.99968 16.7501C8.00137 17.1687 8.03484 17.5865 8.09962 18.0001H4.76215L5.19965 17.5751C5.31681 17.4588 5.4098 17.3207 5.47326 17.1683C5.53673 17.016 5.5694 16.8526 5.5694 16.6876C5.5694 16.5226 5.53673 16.3592 5.47326 16.2068C5.4098 16.0546 5.31681 15.9163 5.19965 15.8C4.4991 15.1072 3.94371 14.2817 3.56597 13.3716C3.18823 12.4616 2.9957 11.4854 2.99965 10.5001C2.99965 8.51097 3.78983 6.60329 5.19635 5.19677C6.60288 3.79024 8.51053 3.00006 10.4996 3.00006C12.0517 2.99073 13.5678 3.46804 14.8345 4.36489C16.1014 5.26174 17.0553 6.53304 17.5622 8.00003C17.2871 8.00003 17.0246 8.00003 16.7497 8.00003C14.429 8.00003 12.2034 8.92197 10.5624 10.5629C8.92153 12.2038 7.99968 14.4294 7.99968 16.7501ZM21.1747 23L21.2372 23.0626H16.7497C15.3038 23.0599 13.9036 22.5562 12.7876 21.6371C11.6715 20.7179 10.9087 19.4403 10.6289 18.0217C10.3492 16.6032 10.5699 15.1316 11.2535 13.8576C11.9371 12.5836 13.0413 11.586 14.3779 11.0347C15.7145 10.4835 17.2009 10.4126 18.5838 10.8344C19.9668 11.2561 21.1608 12.1443 21.9623 13.3475C22.7639 14.5508 23.1235 15.9947 22.9799 17.4334C22.8363 18.8721 22.1983 20.2165 21.1747 21.2375C20.9392 21.4683 20.8043 21.7829 20.7997 22.1126C20.8003 22.278 20.8339 22.4416 20.8982 22.5939C20.9626 22.7463 21.0565 22.8843 21.1747 23Z" fill="white" stroke="#FFCA3A" stroke-width="0.4"/>
</svg>
