<svg width="25" height="19" viewBox="0 0 25 19" fill="none" xmlns="http://www.w3.org/2000/svg">
<mask id="mask0_13_351" style="mask-type:luminance" maskUnits="userSpaceOnUse" x="0" y="0" width="26" height="19">
<path d="M23.75 17.0732H2.49999V16.561L8.74995 11.8184L13.5 15.4228C13.7342 15.5994 14.051 15.6986 14.3812 15.6986C14.7115 15.6986 15.0283 15.5994 15.2625 15.4228L24.6375 8.30896C24.7547 8.22075 24.8477 8.11589 24.9111 8.00029C24.9746 7.88469 25.0072 7.7607 25.0072 7.6355C25.0072 7.51029 24.9746 7.3863 24.9111 7.27077C24.8477 7.15517 24.7547 7.05024 24.6375 6.9621C24.4033 6.78539 24.0865 6.68623 23.7562 6.68623C23.426 6.68623 23.1092 6.78539 22.875 6.9621L14.375 13.4119L9.63748 9.80763C9.40329 9.63093 9.08651 9.53176 8.75623 9.53176C8.42604 9.53176 8.10917 9.63093 7.87498 9.80763L2.49999 13.8767V8.9729L8.74995 4.23036L12.25 6.8862C12.4842 7.06283 12.801 7.162 13.1313 7.162C13.4615 7.162 13.7783 7.06283 14.0125 6.8862L20 2.34283L22.7375 4.42007C22.9729 4.59741 23.2914 4.69654 23.6232 4.69565C23.9549 4.69477 24.2725 4.59393 24.5062 4.41532C24.74 4.23671 24.8706 3.99496 24.8694 3.74327C24.8683 3.49157 24.7354 3.25053 24.5 3.07317L20.8625 0.331981C20.6283 0.155316 20.3115 0.0561637 19.9813 0.0561637C19.651 0.0561637 19.3342 0.155316 19.1 0.331981L13.0999 4.88483L9.61245 2.22901C9.37826 2.05234 9.06148 1.95318 8.7312 1.95318C8.40101 1.95318 8.08423 2.05234 7.84995 2.22901L2.49999 6.28863V0.948516C2.49999 0.696949 2.3683 0.455691 2.13388 0.277816C1.89946 0.099935 1.58152 0 1.25 0C0.918478 0 0.600534 0.099935 0.366113 0.277816C0.131691 0.455691 0 0.696949 0 0.948516V18.0217C0 18.2732 0.131691 18.5145 0.366113 18.6924C0.600534 18.8703 0.918478 18.9702 1.25 18.9702H23.75C24.0815 18.9702 24.3995 18.8703 24.6339 18.6924C24.8683 18.5145 25 18.2732 25 18.0217C25 17.7701 24.8683 17.5289 24.6339 17.351C24.3995 17.1732 24.0815 17.0732 23.75 17.0732Z" fill="white"/>
</mask>
<g mask="url(#mask0_13_351)">
<path d="M23.75 17.0732H2.49999V16.561L8.74995 11.8184L13.5 15.4228C13.7342 15.5994 14.051 15.6986 14.3812 15.6986C14.7115 15.6986 15.0283 15.5994 15.2625 15.4228L24.6375 8.30896C24.7547 8.22075 24.8477 8.11589 24.9111 8.00029C24.9746 7.88469 25.0072 7.7607 25.0072 7.6355C25.0072 7.51029 24.9746 7.3863 24.9111 7.27077C24.8477 7.15517 24.7547 7.05024 24.6375 6.9621C24.4033 6.78539 24.0865 6.68623 23.7562 6.68623C23.426 6.68623 23.1092 6.78539 22.875 6.9621L14.375 13.4119L9.63748 9.80763C9.40329 9.63093 9.08651 9.53176 8.75623 9.53176C8.42604 9.53176 8.10917 9.63093 7.87498 9.80763L2.49999 13.8767V8.9729L8.74995 4.23036L12.25 6.8862C12.4842 7.06283 12.801 7.162 13.1313 7.162C13.4615 7.162 13.7783 7.06283 14.0125 6.8862L20 2.34283L22.7375 4.42007C22.9729 4.59741 23.2914 4.69654 23.6232 4.69565C23.9549 4.69477 24.2725 4.59393 24.5062 4.41532C24.74 4.23671 24.8706 3.99496 24.8694 3.74327C24.8683 3.49157 24.7354 3.25053 24.5 3.07317L20.8625 0.331981C20.6283 0.155316 20.3115 0.0561637 19.9813 0.0561637C19.651 0.0561637 19.3342 0.155316 19.1 0.331981L13.0999 4.88483L9.61245 2.22901C9.37826 2.05234 9.06148 1.95318 8.7312 1.95318C8.40101 1.95318 8.08423 2.05234 7.84995 2.22901L2.49999 6.28863V0.948516C2.49999 0.696949 2.3683 0.455691 2.13388 0.277816C1.89946 0.099935 1.58152 0 1.25 0C0.918478 0 0.600534 0.099935 0.366113 0.277816C0.131691 0.455691 0 0.696949 0 0.948516V18.0217C0 18.2732 0.131691 18.5145 0.366113 18.6924C0.600534 18.8703 0.918478 18.9702 1.25 18.9702H23.75C24.0815 18.9702 24.3995 18.8703 24.6339 18.6924C24.8683 18.5145 25 18.2732 25 18.0217C25 17.7701 24.8683 17.5289 24.6339 17.351C24.3995 17.1732 24.0815 17.0732 23.75 17.0732Z" fill="white" stroke="#FFCA3A" stroke-width="0.4"/>
</g>
</svg>
