<svg width="26" height="28" viewBox="0 0 26 28" fill="none" xmlns="http://www.w3.org/2000/svg">
<path d="M7.99949 6.50547H11.7495C12.081 6.50547 12.399 6.37364 12.6334 6.13896C12.8678 5.90429 12.9995 5.586 12.9995 5.25413C12.9995 4.92225 12.8678 4.60397 12.6334 4.36931C12.399 4.13463 12.081 4.00279 11.7495 4.00279H7.99949C7.66799 4.00279 7.35004 4.13463 7.11563 4.36931C6.88121 4.60397 6.74951 4.92225 6.74951 5.25413C6.74951 5.586 6.88121 5.90429 7.11563 6.13896C7.35004 6.37364 7.66799 6.50547 7.99949 6.50547ZM17.9995 6.50547C18.2467 6.50547 18.4884 6.43208 18.6939 6.29459C18.8995 6.15708 19.0597 5.96165 19.1543 5.73299C19.2489 5.50435 19.2737 5.25274 19.2255 5.01C19.1772 4.76728 19.0582 4.54431 18.8834 4.36931C18.7086 4.1943 18.4858 4.07512 18.2434 4.02684C18.0009 3.97856 17.7496 4.00334 17.5211 4.09805C17.2927 4.19276 17.0976 4.35315 16.9602 4.55893C16.8228 4.76471 16.7495 5.00664 16.7495 5.25413C16.7495 5.586 16.8812 5.90429 17.1157 6.13896C17.35 6.37364 17.668 6.50547 17.9995 6.50547ZM17.9995 11.5108C17.7523 11.5108 17.5106 11.5843 17.305 11.7217C17.0995 11.8592 16.9393 12.0546 16.8446 12.2833C16.75 12.5119 16.7253 12.7635 16.7736 13.0063C16.8217 13.2491 16.9408 13.472 17.1157 13.647C17.2904 13.822 17.5131 13.9411 17.7557 13.9895C17.9981 14.0378 18.2495 14.0129 18.4778 13.9183C18.7063 13.8236 18.9015 13.6632 19.0388 13.4574C19.1762 13.2516 19.2495 13.0096 19.2495 12.7621C19.2495 12.4303 19.1178 12.112 18.8834 11.8773C18.6489 11.6427 18.331 11.5108 17.9995 11.5108ZM24.2495 22.7728H16.5245C16.3379 22.248 16.0369 21.7714 15.6434 21.3775C15.2499 20.9836 14.7738 20.6823 14.2495 20.4955V17.7675H19.2495C20.2441 17.7675 21.1979 17.372 21.9011 16.668C22.6044 15.964 22.9995 15.0091 22.9995 14.0135V11.5108C22.994 10.5848 22.6467 9.69341 22.0245 9.00819C22.6467 8.32287 22.994 7.43153 22.9995 6.50547V4.00279C22.9995 3.00717 22.6044 2.05232 21.9011 1.34831C21.1979 0.644292 20.2441 0.248779 19.2495 0.248779H6.74951C5.75495 0.248779 4.80112 0.644292 4.09786 1.34831C3.3946 2.05232 2.99951 3.00717 2.99951 4.00279V6.50547C3.00502 7.43153 3.35227 8.32287 3.97451 9.00819C3.35227 9.69341 3.00502 10.5848 2.99951 11.5108V14.0135C2.99951 15.0091 3.3946 15.964 4.09786 16.668C4.80112 17.372 5.75495 17.7675 6.74951 17.7675H11.7495V20.4955C11.2252 20.6823 10.7491 20.9836 10.3556 21.3775C9.96215 21.7714 9.66112 22.248 9.47446 22.7728H1.74951C1.41799 22.7728 1.10005 22.9047 0.865624 23.1394C0.631202 23.3741 0.499512 23.6923 0.499512 24.0242C0.499512 24.3561 0.631202 24.6744 0.865624 24.909C1.10005 25.1437 1.41799 25.2755 1.74951 25.2755H9.47446C9.73724 26.0003 10.2166 26.6264 10.8472 27.0689C11.4779 27.5114 12.2294 27.7488 12.9995 27.7488C13.7696 27.7488 14.5211 27.5114 15.1518 27.0689C15.7824 26.6264 16.2618 26.0003 16.5245 25.2755H24.2495C24.5811 25.2755 24.899 25.1437 25.1334 24.909C25.3678 24.6744 25.4995 24.3561 25.4995 24.0242C25.4995 23.6923 25.3678 23.3741 25.1334 23.1394C24.899 22.9047 24.5811 22.7728 24.2495 22.7728ZM5.49951 4.00279C5.49951 3.67092 5.6312 3.35264 5.86562 3.11796C6.10004 2.88329 6.41799 2.75145 6.74951 2.75145H19.2495C19.581 2.75145 19.899 2.88329 20.1334 3.11796C20.3678 3.35264 20.4995 3.67092 20.4995 4.00279V6.50547C20.4995 6.83734 20.3678 7.15563 20.1334 7.3903C19.899 7.62497 19.581 7.7568 19.2495 7.7568H6.74951C6.41799 7.7568 6.10004 7.62497 5.86562 7.3903C5.6312 7.15563 5.49951 6.83734 5.49951 6.50547V4.00279ZM6.74951 15.2649C6.41799 15.2649 6.10004 15.133 5.86562 14.8983C5.6312 14.6637 5.49951 14.3454 5.49951 14.0135V11.5108C5.49951 11.179 5.6312 10.8607 5.86562 10.626C6.10004 10.3913 6.41799 10.2595 6.74951 10.2595H19.2495C19.581 10.2595 19.899 10.3913 20.1334 10.626C20.3678 10.8607 20.4995 11.179 20.4995 11.5108V14.0135C20.4995 14.3454 20.3678 14.6637 20.1334 14.8983C19.899 15.133 19.581 15.2649 19.2495 15.2649H6.74951ZM12.9995 25.2755C12.7522 25.2755 12.5106 25.2022 12.3051 25.0647C12.0995 24.9271 11.9392 24.7318 11.8446 24.5031C11.7501 24.2744 11.7253 24.0228 11.7735 23.7801C11.8218 23.5374 11.9408 23.3143 12.1156 23.1394C12.2904 22.9644 12.5132 22.8452 12.7556 22.7969C12.9981 22.7487 13.2495 22.7734 13.4779 22.8681C13.7062 22.9628 13.9015 23.1232 14.0389 23.329C14.1762 23.5348 14.2495 23.7767 14.2495 24.0242C14.2495 24.3561 14.1178 24.6744 13.8834 24.909C13.649 25.1437 13.3311 25.2755 12.9995 25.2755ZM11.7495 11.5108H7.99949C7.66799 11.5108 7.35004 11.6427 7.11563 11.8773C6.88121 12.112 6.74951 12.4303 6.74951 12.7621C6.74951 13.094 6.88121 13.4123 7.11563 13.647C7.35004 13.8817 7.66799 14.0135 7.99949 14.0135H11.7495C12.081 14.0135 12.399 13.8817 12.6334 13.647C12.8678 13.4123 12.9995 13.094 12.9995 12.7621C12.9995 12.4303 12.8678 12.112 12.6334 11.8773C12.399 11.6427 12.081 11.5108 11.7495 11.5108Z" fill="white" stroke="#FFCA3A" stroke-width="0.4"/>
</svg>
